<?xml version="1.0" encoding="UTF-8"?>
<svg version="1.1" xmlns="http://www.w3.org/2000/svg" width="4000" height="4000">
<path d="M0 0 C5.82357624 0.00728855 11.64712604 0.00018195 17.47070065 -0.00633185 C29.55295078 -0.0193457 41.63516221 -0.01831945 53.71741445 -0.00945991 C66.00969772 -0.00050707 78.3019564 0.00175066 90.59424193 -0.00383255 C91.37665237 -0.00418382 92.15906281 -0.00453509 92.96518266 -0.004897 C96.96080008 -0.00671977 100.95641745 -0.00864642 104.9520348 -0.01060784 C134.06377375 -0.02467068 163.17549794 -0.02398814 192.28723831 -0.0157652 C221.78082012 -0.00747935 251.27439166 -0.00575043 280.76797409 -0.01197721 C281.69926781 -0.01217075 282.63056153 -0.01236429 283.59007627 -0.0125637 C292.12521094 -0.01433839 300.6603456 -0.01618011 309.19548025 -0.01810233 C330.59550557 -0.02291408 351.995531 -0.02668239 373.39555664 -0.02974345 C374.37604307 -0.02988415 375.35652949 -0.03002485 376.36672763 -0.03016982 C424.66780117 -0.03700178 472.96887287 -0.03239959 521.26994629 -0.02665998 C523.38509278 -0.02640907 525.50023927 -0.02615817 527.61538577 -0.02590729 C528.66366381 -0.02578293 529.71194185 -0.02565856 530.7919859 -0.02553042 C544.61654726 -0.02389081 558.44110863 -0.02228098 572.26567001 -0.02075054 C573.32244873 -0.02063305 574.37922744 -0.02051557 575.46802975 -0.02039453 C624.46118334 -0.01498851 673.45433601 -0.01627706 722.44748973 -0.0190419 C727.79381991 -0.0193413 733.1401501 -0.01962779 738.48648029 -0.01991573 C754.60133842 -0.02078752 770.71619655 -0.02167834 786.83105469 -0.02260853 C835.97077532 -0.02544199 885.11049597 -0.0272428 934.25021668 -0.02815343 C935.34430893 -0.02817404 936.43840118 -0.02819464 937.56564774 -0.02821587 C1008.41162551 -0.02953191 1079.25760226 -0.02623073 1150.10357971 -0.0196047 C1151.23441375 -0.01949934 1152.36524778 -0.01939399 1153.53034951 -0.01928544 C1191.40667009 -0.01575648 1229.28299065 -0.01198824 1267.15931121 -0.00819555 C1381.69468974 0.0032655 1496.23006458 0.00954661 1700.77664463 -0.00854154 C1738.64344565 -0.01233123 1776.51024668 -0.01607682 1814.37704773 -0.0196047 C1815.50756451 -0.01971043 1816.63808129 -0.01981616 1817.80285616 -0.0199251 C1888.61204117 -0.02654202 1959.42122546 -0.029487 2030.23041077 -0.02815343 C2031.32413794 -0.02813316 2032.41786511 -0.0281129 2033.54473552 -0.02809201 C2082.65726561 -0.02717181 2131.76979561 -0.02525681 2180.88232562 -0.02242192 C2196.99003245 -0.0214933 2213.09773928 -0.02061029 2229.20544611 -0.01974278 C2234.54869127 -0.0194548 2239.89193644 -0.01916274 2245.2351816 -0.0188612 C2294.22844067 -0.01610478 2343.22169851 -0.01530391 2392.21495743 -0.02075054 C2393.79911858 -0.02092591 2393.79911858 -0.02092591 2395.415283 -0.02110483 C2409.2319359 -0.02264015 2423.04858879 -0.02426809 2436.86524168 -0.02590729 C2437.91269019 -0.02603153 2438.96013871 -0.02615577 2440.03932808 -0.02628378 C2442.15254918 -0.02653446 2444.26577027 -0.02678535 2446.37899136 -0.02703647 C2494.61435188 -0.03275334 2542.84971021 -0.03666543 2591.0850708 -0.02974345 C2592.55385943 -0.02953335 2592.55385943 -0.02953335 2594.05232056 -0.02931901 C2615.4175216 -0.02622821 2636.78272238 -0.02226931 2658.1479231 -0.0174576 C2666.66949983 -0.01554999 2675.19107659 -0.01374817 2683.71265335 -0.01197721 C2684.64219462 -0.01178096 2685.57173588 -0.01158471 2686.52944507 -0.01138252 C2715.98371078 -0.00521306 2745.43796588 -0.00820783 2774.89223081 -0.01652752 C2803.90929483 -0.02468289 2832.92634223 -0.02366666 2861.94340442 -0.00942243 C2865.92439808 -0.00746922 2869.90539178 -0.00561985 2873.88638551 -0.00383255 C2874.66569199 -0.00347858 2875.44499848 -0.00312462 2876.2479203 -0.00275993 C2888.49704699 0.00253306 2900.74614811 -0.00211471 2912.99527179 -0.01109661 C2925.00273738 -0.01969439 2937.01016175 -0.01751681 2949.01762332 -0.00408619 C2955.40040429 0.00261827 2961.78309004 0.00478406 2968.16586667 -0.00653574 C2993.37428217 -0.04817316 3018.21156941 0.14384309 3043.24031372 3.38222598 C3045.08715846 3.60613523 3046.93415189 3.82882308 3048.7813238 4.05001702 C3053.1766859 4.58007201 3057.55280793 5.20548957 3061.92781372 5.88222598 C3063.10635422 6.06297167 3063.10635422 6.06297167 3064.30870361 6.2473688 C3104.22799117 12.47978487 3143.25449363 24.17101816 3180.24031372 40.38222598 C3181.6689978 41.00798525 3181.6689978 41.00798525 3183.12654419 41.64638613 C3205.32183163 51.44600675 3226.63833372 62.56896851 3247.24031372 75.38222598 C3247.87727173 75.77474551 3248.51422974 76.16726504 3249.1704895 76.5716791 C3259.56356521 82.99268038 3269.40631813 90.14516069 3279.24031372 97.38222598 C3280.2975061 98.15469668 3280.2975061 98.15469668 3281.37605591 98.94277285 C3294.37255576 108.44703675 3306.51682365 118.73528667 3318.31843872 129.67910098 C3320.2560027 131.47160669 3322.20387494 133.25303799 3324.16218872 135.02285098 C3334.0483309 143.9674558 3343.86975778 153.15784652 3352.48640747 163.35097598 C3354.29844735 165.44955223 3356.18200503 167.47189174 3358.07771607 169.49477481 C3364.08609045 175.92786836 3369.56561577 182.6755288 3374.91707153 189.66054629 C3376.17894952 191.30238459 3377.453206 192.93362733 3378.73250122 194.56191348 C3429.59457795 259.7238712 3463.89447943 338.29810477 3476.55281372 420.00722598 C3476.66996735 420.75125674 3476.78712097 421.4952875 3476.90782471 422.26186465 C3477.64064687 426.97835849 3478.27721662 431.70184727 3478.87096389 436.43771699 C3479.11611234 438.39207505 3479.3664642 440.34578783 3479.62215382 442.29879476 C3482.83288222 467.53532336 3482.66758739 492.74136012 3482.6225397 518.14191226 C3482.61525115 523.9654885 3482.62235775 529.78903829 3482.62887155 535.61261291 C3482.6418854 547.69486304 3482.64085915 559.77707447 3482.63199961 571.85932671 C3482.62304677 584.15160997 3482.62078904 596.44386865 3482.62637225 608.73615419 C3482.62689915 609.90976985 3482.62689915 609.90976985 3482.6274367 611.10709492 C3482.62925947 615.10271234 3482.63118612 619.0983297 3482.63314754 623.09394706 C3482.64721038 652.205686 3482.64652784 681.31741019 3482.6383049 710.42915057 C3482.63001905 739.92273238 3482.62829013 769.41630391 3482.63451691 798.90988635 C3482.63471045 799.84118007 3482.63490399 800.77247378 3482.6351034 801.73198852 C3482.63687809 810.2671232 3482.63871981 818.80225786 3482.64064203 827.3373925 C3482.64545377 848.73741782 3482.64922209 870.13744326 3482.65228315 891.5374689 C3482.65242385 892.51795532 3482.65256455 893.49844175 3482.65270952 894.50863988 C3482.65954147 942.80971342 3482.65493929 991.11078512 3482.64919968 1039.41185855 C3482.64894877 1041.52700504 3482.64869787 1043.64215153 3482.64844699 1045.75729802 C3482.64826044 1047.32971509 3482.64826044 1047.32971509 3482.64807012 1048.93389815 C3482.64643051 1062.75845952 3482.64482068 1076.58302089 3482.64329023 1090.40758227 C3482.64317275 1091.46436098 3482.64305527 1092.5211397 3482.64293423 1093.60994201 C3482.63752821 1142.60309559 3482.63881676 1191.59624826 3482.6415816 1240.58940198 C3482.64188099 1245.93573217 3482.64216749 1251.28206235 3482.64245543 1256.62839254 C3482.64332722 1272.74325068 3482.64421804 1288.85810881 3482.64514823 1304.97296694 C3482.64798168 1354.11268758 3482.6497825 1403.25240822 3482.65069313 1452.39212893 C3482.65071374 1453.48622118 3482.65073434 1454.58031344 3482.65075557 1455.70756 C3482.65207161 1526.55353777 3482.64877043 1597.39951451 3482.6421444 1668.24549197 C3482.64203904 1669.376326 3482.64193369 1670.50716003 3482.64182514 1671.67226177 C3482.63829618 1709.54858235 3482.63452793 1747.42490291 3482.63073525 1785.30122347 C3482.6192742 1899.836602 3482.61299309 2014.37197684 3482.63108124 2218.91855689 C3482.63487093 2256.78535791 3482.63861651 2294.65215894 3482.6421444 2332.51895999 C3482.64225013 2333.64947677 3482.64235586 2334.77999355 3482.6424648 2335.94476842 C3482.64908172 2406.75395342 3482.6520267 2477.56313771 3482.65069313 2548.37232302 C3482.65066273 2550.01291378 3482.65066273 2550.01291378 3482.65063171 2551.68664778 C3482.64971151 2600.79917786 3482.64779651 2649.91170787 3482.64496162 2699.02423788 C3482.644033 2715.1319447 3482.64314999 2731.23965153 3482.64228248 2747.34735836 C3482.6419945 2752.69060353 3482.64170244 2758.03384869 3482.6414009 2763.37709385 C3482.63864448 2812.37035293 3482.63784361 2861.36361077 3482.64329023 2910.35686968 C3482.64340715 2911.41297712 3482.64352407 2912.46908456 3482.64364453 2913.55719525 C3482.64517985 2927.37384815 3482.64680779 2941.19050104 3482.64844699 2955.00715393 C3482.64857123 2956.05460245 3482.64869547 2957.10205096 3482.64882348 2958.18124034 C3482.64907416 2960.29446143 3482.64932505 2962.40768252 3482.64957617 2964.52090362 C3482.65529304 3012.75626414 3482.65920513 3060.99162247 3482.65228315 3109.22698306 C3482.65214308 3110.20617548 3482.65200302 3111.1853679 3482.65185871 3112.19423282 C3482.64876791 3133.55943385 3482.64480901 3154.92463464 3482.6399973 3176.28983535 C3482.63808969 3184.81141209 3482.63628786 3193.33298884 3482.63451691 3201.85456561 C3482.63422254 3203.24887751 3482.63422254 3203.24887751 3482.63392222 3204.67135732 C3482.62775276 3234.12562304 3482.63074753 3263.57987814 3482.63906722 3293.03414306 C3482.64722259 3322.05120709 3482.64620635 3351.06825449 3482.63196212 3380.08531667 C3482.63000892 3384.06631033 3482.62815955 3388.04730403 3482.62637225 3392.02829777 C3482.62601828 3392.80760425 3482.62566432 3393.58691073 3482.62529963 3394.38983256 C3482.62000664 3406.63895925 3482.62465441 3418.88806036 3482.63363631 3431.13718404 C3482.64223409 3443.14464963 3482.64005651 3455.15207401 3482.62662589 3467.15953557 C3482.61992143 3473.54231655 3482.61775564 3479.9250023 3482.62907544 3486.30777893 C3482.67071286 3511.51619443 3482.47869661 3536.35348167 3479.24031372 3561.38222598 C3479.01640447 3563.22907072 3478.79371662 3565.07606414 3478.57252268 3566.92323606 C3478.04246769 3571.31859815 3477.41705013 3575.69472019 3476.74031372 3580.06972598 C3476.55956802 3581.24826647 3476.55956802 3581.24826647 3476.3751709 3582.45061587 C3470.14275483 3622.36990342 3458.45152154 3661.39640589 3442.24031372 3698.38222598 C3441.61455444 3699.81091006 3441.61455444 3699.81091006 3440.97615357 3701.26845645 C3431.17653295 3723.46374389 3420.05357119 3744.78024598 3407.24031372 3765.38222598 C3406.84779419 3766.01918399 3406.45527466 3766.65614199 3406.0508606 3767.31240176 C3399.62985932 3777.70547746 3392.47737901 3787.54823039 3385.24031372 3797.38222598 C3384.72533325 3798.0870209 3384.21035278 3798.79181582 3383.67976685 3799.51796816 C3374.17550295 3812.51446802 3363.88725303 3824.65873591 3352.94343872 3836.46035098 C3351.15093301 3838.39791496 3349.36950171 3840.34578719 3347.59968872 3842.30410098 C3338.65508389 3852.19024315 3329.46469318 3862.01167004 3319.27156372 3870.62831973 C3317.17298747 3872.44035961 3315.15064796 3874.32391729 3313.12776489 3876.21962832 C3306.69467133 3882.22800271 3299.9470109 3887.70752803 3292.96199341 3893.05898379 C3291.32015511 3894.32086178 3289.68891237 3895.59511826 3288.06062622 3896.87441348 C3222.8986685 3947.7364902 3144.32443493 3982.03639169 3062.61531372 3994.69472598 C3061.87128296 3994.8118796 3061.1272522 3994.92903323 3060.36067505 3995.04973696 C3055.64418121 3995.78255913 3050.92069243 3996.41912888 3046.18482271 3997.01287614 C3044.23046465 3997.2580246 3042.27675186 3997.50837646 3040.32374494 3997.76406608 C3015.08721634 4000.97479448 2989.88117958 4000.80949964 2964.48062744 4000.76445195 C2958.6570512 4000.75716341 2952.83350141 4000.76427 2947.00992679 4000.7707838 C2934.92767666 4000.78379765 2922.84546523 4000.78277141 2910.76321299 4000.77391187 C2898.47092972 4000.76495903 2886.17867105 4000.7627013 2873.88638551 4000.7682845 C2872.71276985 4000.76881141 2872.71276985 4000.76881141 2871.51544478 4000.76934896 C2867.51982736 4000.77117173 2863.52421 4000.77309838 2859.52859264 4000.77505979 C2830.4168537 4000.78912263 2801.30512951 4000.7884401 2772.19338913 4000.78021716 C2742.69980732 4000.7719313 2713.20623579 4000.77020238 2683.71265335 4000.77642916 C2682.78135963 4000.7766227 2681.85006592 4000.77681625 2680.89055118 4000.77701565 C2672.3554165 4000.77879035 2663.82028184 4000.78063207 2655.28514719 4000.78255429 C2633.88512188 4000.78736603 2612.48509644 4000.79113435 2591.0850708 4000.7941954 C2590.10458438 4000.7943361 2589.12409795 4000.79447681 2588.11389982 4000.79462178 C2539.81282628 4000.80145373 2491.51175457 4000.79685155 2443.21068115 4000.79111193 C2441.09553466 4000.79086102 2438.98038817 4000.79061013 2436.86524168 4000.79035925 C2435.81696363 4000.79023488 2434.76868559 4000.79011051 2433.68864155 4000.78998238 C2419.86408018 4000.78834276 2406.03951881 4000.78673293 2392.21495743 4000.78520249 C2391.15817872 4000.78508501 2390.1014 4000.78496752 2389.01259769 4000.78484648 C2340.0194441 4000.77944046 2291.02629144 4000.78072901 2242.03313772 4000.78349386 C2236.68680753 4000.78379325 2231.34047734 4000.78407975 2225.99414716 4000.78436768 C2209.87928902 4000.78523947 2193.76443089 4000.78613029 2177.64957276 4000.78706048 C2128.50985212 4000.78989394 2079.37013148 4000.79169476 2030.23041077 4000.79260539 C2029.13631852 4000.79262599 2028.04222626 4000.7926466 2026.9149797 4000.79266783 C1956.06900193 4000.79398386 1885.22302519 4000.79068268 1814.37704773 4000.78405665 C1813.2462137 4000.7839513 1812.11537966 4000.78384594 1810.95027793 4000.78373739 C1773.07395735 4000.78020844 1735.19763679 4000.77644019 1697.32131623 4000.7726475 C1582.7859377 4000.76118646 1468.25056286 4000.75490535 1263.70398281 4000.7729935 C1225.83718179 4000.77678318 1187.97038076 4000.78052877 1150.10357971 4000.78405665 C1148.97306293 4000.78416238 1147.84254615 4000.78426812 1146.67777128 4000.78437706 C1075.86858628 4000.79099397 1005.05940199 4000.79393895 934.25021668 4000.79260539 C933.15648951 4000.79258512 932.06276234 4000.79256485 930.93589192 4000.79254397 C881.82336184 4000.79162376 832.71083183 4000.78970877 783.59830182 4000.78687388 C767.49059499 4000.78594525 751.38288817 4000.78506224 735.27518134 4000.78419473 C729.93193617 4000.78390676 724.58869101 4000.78361469 719.24544584 4000.78331316 C670.25218677 4000.78055674 621.25892893 4000.77975587 572.26567001 4000.78520249 C570.68150886 4000.78537786 570.68150886 4000.78537786 569.06534445 4000.78555678 C555.24869155 4000.7870921 541.43203866 4000.78872004 527.61538577 4000.79035925 C526.56793725 4000.79048349 525.52048874 4000.79060773 524.44129936 4000.79073573 C522.32807827 4000.79098641 520.21485717 4000.79123731 518.10163608 4000.79148842 C469.86627556 4000.79720529 421.63091723 4000.80111739 373.39555664 4000.7941954 C371.92676801 4000.79398531 371.92676801 4000.79398531 370.42830688 4000.79377097 C349.06310585 4000.79068016 327.69790506 4000.78672127 306.33270435 4000.78190955 C297.81112761 4000.78000195 289.28955086 4000.77820012 280.76797409 4000.77642916 C279.83843283 4000.77623292 278.90889156 4000.77603667 277.95118238 4000.77583447 C248.49691666 4000.76966502 219.04266156 4000.77265979 189.58839664 4000.78097948 C160.57133261 4000.78913484 131.55428521 4000.78811861 102.53722302 4000.77387438 C98.55622937 4000.77192117 94.57523567 4000.7700718 90.59424193 4000.7682845 C89.81493545 4000.76793054 89.03562897 4000.76757657 88.23270714 4000.76721188 C75.98358045 4000.76191889 63.73447934 4000.76656666 51.48535566 4000.77554857 C39.47789007 4000.78414635 27.47046569 4000.78196877 15.46300413 4000.76853815 C9.08022315 4000.76183369 2.6975374 4000.75966789 -3.68523923 4000.7709877 C-28.89365473 4000.81262512 -53.73094197 4000.62060886 -78.75968628 3997.38222598 C-80.60653102 3997.15831673 -82.45352444 3996.93562887 -84.30069636 3996.71443493 C-88.69605846 3996.18437994 -93.07218049 3995.55896238 -97.44718628 3994.88222598 C-98.23287994 3994.76172885 -99.01857361 3994.64123171 -99.82807617 3994.51708315 C-139.74736372 3988.28466708 -178.77386619 3976.5934338 -215.75968628 3960.38222598 C-217.18837036 3959.7564667 -217.18837036 3959.7564667 -218.64591675 3959.11806582 C-240.84120419 3949.31844521 -262.15770628 3938.19548345 -282.75968628 3925.38222598 C-283.39664429 3924.98970645 -284.03360229 3924.59718691 -284.68986206 3924.19277285 C-295.08293777 3917.77177157 -304.92569069 3910.61929126 -314.75968628 3903.38222598 C-315.4644812 3902.86724551 -316.16927612 3902.35226504 -316.89542847 3901.8216791 C-329.89192832 3892.31741521 -342.03619621 3882.02916528 -353.83781128 3871.08535098 C-355.77537526 3869.29284526 -357.72324749 3867.51141397 -359.68156128 3865.74160098 C-369.56770346 3856.79699615 -379.38913034 3847.60660544 -388.00578003 3837.41347598 C-389.81781991 3835.31489972 -391.70137759 3833.29256021 -393.59708862 3831.26967715 C-399.60546301 3824.83658359 -405.08498833 3818.08892316 -410.43644409 3811.10390566 C-411.69832208 3809.46206736 -412.97257856 3807.83082462 -414.25187378 3806.20253848 C-465.1139505 3741.04058075 -499.41385199 3662.46634718 -512.07218628 3580.75722598 C-512.1893399 3580.01319522 -512.30649353 3579.26916445 -512.42719726 3578.50258731 C-513.16001943 3573.78609346 -513.79658918 3569.06260468 -514.39033644 3564.32673497 C-514.6354849 3562.3723769 -514.88583676 3560.41866412 -515.14152638 3558.4656572 C-518.35225478 3533.2291286 -518.18695995 3508.02309183 -518.14191226 3482.6225397 C-518.13462371 3476.79896346 -518.1417303 3470.97541366 -518.1482441 3465.15183905 C-518.16125795 3453.06958892 -518.16023171 3440.98737749 -518.15137217 3428.90512525 C-518.14241933 3416.61284198 -518.1401616 3404.3205833 -518.1457448 3392.02829777 C-518.14609607 3391.24588733 -518.14644734 3390.46347688 -518.14680926 3389.65735704 C-518.14863203 3385.66173962 -518.15055868 3381.66612225 -518.15252009 3377.6705049 C-518.16658293 3348.55876595 -518.1659004 3319.44704176 -518.15767746 3290.33530139 C-518.1493916 3260.84171958 -518.14766268 3231.34814804 -518.15388946 3201.85456561 C-518.15408301 3200.92327189 -518.15427655 3199.99197817 -518.15447595 3199.03246343 C-518.15625065 3190.49732875 -518.15809237 3181.96219409 -518.16001459 3173.42705945 C-518.16482633 3152.02703413 -518.16859465 3130.62700869 -518.1716557 3109.22698306 C-518.17179641 3108.24649663 -518.17193711 3107.26601021 -518.17208208 3106.25581207 C-518.17891403 3057.95473853 -518.17431185 3009.65366683 -518.16857223 2961.35259341 C-518.16832132 2959.23744692 -518.16807043 2957.12230043 -518.16781955 2955.00715393 C-518.16769518 2953.95887589 -518.16757081 2952.91059785 -518.16744268 2951.8305538 C-518.16580307 2938.00599243 -518.16419323 2924.18143106 -518.16266279 2910.35686968 C-518.16254531 2909.30009097 -518.16242783 2908.24331226 -518.16230678 2907.15450995 C-518.15690076 2858.16135636 -518.15818931 2809.16820369 -518.16095416 2760.17504997 C-518.16125355 2754.82871979 -518.16154005 2749.4823896 -518.16182798 2744.13605941 C-518.16269977 2728.02120128 -518.16359059 2711.90634314 -518.16452078 2695.79148501 C-518.16735424 2646.65176438 -518.16915506 2597.51204373 -518.17006569 2548.37232302 C-518.17008629 2547.27823077 -518.1701069 2546.18413852 -518.17012813 2545.05689196 C-518.17144416 2474.21091418 -518.16814298 2403.36493744 -518.16151695 2332.51895999 C-518.1614116 2331.38812595 -518.16130624 2330.25729192 -518.16119769 2329.09219019 C-518.15766874 2291.2158696 -518.15390049 2253.33954904 -518.1501078 2215.46322849 C-518.13864676 2100.92784996 -518.13236565 1986.39247512 -518.1504538 1781.84589507 C-518.15424348 1743.97909404 -518.15798907 1706.11229302 -518.16151695 1668.24549197 C-518.16162269 1667.11497519 -518.16172842 1665.9844584 -518.16183736 1664.81968354 C-518.16845427 1594.01049853 -518.17139925 1523.20131424 -518.17006569 1452.39212893 C-518.17004542 1451.29840176 -518.17002515 1450.20467459 -518.17000427 1449.07780418 C-518.16908406 1399.96527409 -518.16716907 1350.85274408 -518.16433418 1301.74021408 C-518.16340555 1285.63250725 -518.16252254 1269.52480042 -518.16165503 1253.41709359 C-518.16136706 1248.07384843 -518.16107499 1242.73060326 -518.16077346 1237.3873581 C-518.15801704 1188.39409903 -518.15721617 1139.40084119 -518.16266279 1090.40758227 C-518.16277971 1089.35147483 -518.16289662 1088.2953674 -518.16301708 1087.2072567 C-518.1645524 1073.3906038 -518.16618034 1059.57395091 -518.16781955 1045.75729802 C-518.16800591 1044.18612525 -518.16800591 1044.18612525 -518.16819603 1042.58321162 C-518.16844671 1040.46999052 -518.16869761 1038.35676943 -518.16894872 1036.24354834 C-518.1746656 988.00818782 -518.17857769 939.77282949 -518.1716557 891.5374689 C-518.17151564 890.55827648 -518.17137557 889.57908406 -518.17123127 888.57021914 C-518.16814046 867.2050181 -518.16418157 845.83981732 -518.15936985 824.4746166 C-518.15746225 815.95303987 -518.15566042 807.43146311 -518.15388946 798.90988635 C-518.15369322 797.98034508 -518.15349697 797.05080382 -518.15329477 796.09309463 C-518.14712532 766.63882892 -518.15012009 737.18457382 -518.15843978 707.73030889 C-518.16659514 678.71324487 -518.16557891 649.69619746 -518.15133468 620.67913528 C-518.14938147 616.69814162 -518.1475321 612.71714792 -518.1457448 608.73615419 C-518.14539084 607.9568477 -518.14503687 607.17754122 -518.14467218 606.37461939 C-518.13937919 594.12549271 -518.14402696 581.87639159 -518.15300887 569.62726791 C-518.16160665 557.61980232 -518.15942907 545.61237795 -518.14599845 533.60491638 C-518.13929399 527.22213541 -518.13712819 520.83944966 -518.148448 514.45667303 C-518.19008542 489.24825753 -517.99806916 464.41097029 -514.75968628 439.38222598 C-514.53577703 437.53538124 -514.31308917 435.68838781 -514.09189523 433.8412159 C-513.56184025 429.4458538 -512.93642268 425.06973177 -512.25968628 420.69472598 C-512.13918915 419.90903231 -512.01869202 419.12333865 -511.89454346 418.31383608 C-505.66212738 378.39454853 -493.9708941 339.36804607 -477.75968628 302.38222598 C-477.34251343 301.42976992 -476.92534058 300.47731387 -476.49552612 299.49599551 C-466.69590551 277.30070807 -455.57294375 255.98420597 -442.75968628 235.38222598 C-442.17090698 234.42678897 -442.17090698 234.42678897 -441.57023315 233.4520502 C-435.14923187 223.05897449 -427.99675156 213.21622157 -420.75968628 203.38222598 C-420.24470581 202.67743106 -419.72972534 201.97263613 -419.1991394 201.24648379 C-409.69487551 188.24998393 -399.40662559 176.10571605 -388.46281128 164.30410098 C-386.67030557 162.366537 -384.88887427 160.41866476 -383.11906128 158.46035098 C-374.17445645 148.5742088 -364.98406574 138.75278192 -354.79093628 130.13613223 C-352.69236002 128.32409235 -350.67002051 126.44053467 -348.64713745 124.54482363 C-342.21404389 118.53644925 -335.46638346 113.05692393 -328.48136597 107.70546816 C-326.83952767 106.44359017 -325.20828492 105.1693337 -323.57999878 103.89003848 C-258.41804106 53.02796175 -179.84380748 18.72806027 -98.13468628 6.06972598 C-97.01864014 5.89399554 -97.01864014 5.89399554 -95.88004761 5.71471499 C-91.16355376 4.98189283 -86.44006498 4.34532308 -81.70419527 3.75157581 C-79.7498372 3.50642736 -77.79612442 3.2560755 -75.8431175 3.00038588 C-50.6065889 -0.21034253 -25.40055213 -0.04504769 0 0 Z " fill="#FEFEFE" transform="translate(517.7596862781793,-0.3822259772568941)"/>
<path d="M0 0 C3.82627967 0.34302583 7.65388656 0.65812571 11.483078 0.96644592 C105.06246528 8.5029551 197.51200538 25.3581039 305.87792969 64.34765625 C306.53114197 64.6005542 307.18435425 64.85345215 307.85736084 65.11401367 C349.84260673 81.41941255 391.0182124 100.54375029 429.87792969 123.34765625 C431.67965875 124.38993556 433.48174622 125.43159554 435.28417969 126.47265625 C466.24977793 144.45750228 496.4324297 164.27924031 523.87792969 187.34765625 C524.66876953 188.01112061 524.66876953 188.01112061 525.47558594 188.68798828 C539.72962373 200.65592315 553.56550189 212.95766007 566.75292969 226.09765625 C567.80468384 227.14252197 567.80468384 227.14252197 568.87768555 228.20849609 C572.85399705 232.19661796 576.65024543 236.28798135 580.328125 240.55273438 C582.28165453 242.81523424 584.29738593 245.01768595 586.31542969 247.22265625 C590.71673001 252.11134889 594.82223204 257.17103714 598.87792969 262.34765625 C599.89425617 263.61116042 600.91123541 264.87413969 601.92871094 266.13671875 C611.69395121 278.35738887 620.4049726 291.20499623 628.87792969 304.34765625 C629.4387518 305.10058975 629.99957392 305.85352324 630.57739064 306.6292729 C635.63998732 313.77941459 636.88861237 319.02634489 636.76342851 327.68794852 C636.77411434 328.89051667 636.78480018 330.09308482 636.79580983 331.33209443 C636.81833498 334.66021036 636.80973105 337.98556094 636.78778876 341.31350128 C636.77160529 344.95086333 636.79625143 348.58799577 636.8155565 352.22531113 C636.84389171 358.62113961 636.84623285 365.01656976 636.83161489 371.41243825 C636.80985151 380.98724126 636.82838972 390.56167911 636.85470584 400.13645562 C636.89835478 416.45498288 636.90864679 432.77338018 636.90078354 449.09195709 C636.89291459 465.6306163 636.90014313 482.1691652 636.92579079 498.70780754 C636.92820214 500.27432877 636.92820214 500.27432877 636.93066222 501.8724969 C636.93725363 506.12592235 636.94394344 510.37934763 636.95076055 514.63277273 C637.02178733 559.01367741 637.04320298 603.39452027 637.04730532 647.7754753 C637.04775855 652.55312088 637.04823412 657.33076645 637.04872918 662.10841203 C637.04884821 663.2939733 637.04896724 664.47953458 637.04908988 665.70102195 C637.05194838 691.96621754 637.06727549 718.2314013 637.08482009 744.49659062 C637.0920185 755.30963702 637.0989487 766.12268361 637.10593385 776.93573016 C637.10670797 778.13045375 637.1074821 779.32517734 637.10827968 780.55610467 C637.15255113 849.02382704 637.18142314 917.49154167 637.1782198 985.95927906 C637.17810935 988.521848 637.17799919 991.08441694 637.17788934 993.64698588 C637.17737565 1005.21694915 637.17675846 1016.78691241 637.17611215 1028.35687567 C637.17582428 1033.51629175 637.17554325 1038.67570783 637.17526295 1043.83512391 C637.17512019 1046.41750484 637.17497305 1048.99988578 637.17482154 1051.58226671 C637.17005902 1133.25358421 637.22129354 1214.9246893 637.31860352 1296.59594727 C637.34311017 1317.17536514 637.36739617 1337.75478321 637.39045429 1358.33420277 C637.39187441 1359.60131807 637.39329453 1360.86843338 637.39475768 1362.17394612 C637.4382534 1401.2192295 637.46461978 1440.26449545 637.4734602 1479.30980206 C637.47373985 1480.53542453 637.47401951 1481.761047 637.47430764 1483.02380955 C637.48028018 1509.92739319 637.48210906 1536.83097574 637.480115 1563.73455993 C637.4794396 1573.36078213 637.4790753 1582.98700434 637.4788639 1592.61322656 C637.4788085 1595.00802928 637.47873707 1597.40283199 637.47864953 1599.7976347 C637.47741468 1637.9749474 637.51732487 1676.15207843 637.57772624 1714.32933905 C637.63824115 1752.77370457 637.65364439 1791.21781837 637.60739699 1829.66221146 C637.60101076 1834.97257446 637.59510785 1840.2829379 637.58949089 1845.59330177 C637.58837028 1846.63429183 637.58724967 1847.67528189 637.5860951 1848.7478171 C637.56961335 1865.24196917 637.60015113 1881.73568636 637.6501892 1898.22975666 C637.69839142 1914.44215232 637.69675673 1930.65390473 637.64184424 1946.86628609 C637.61113214 1956.37536643 637.61876803 1965.8825541 637.68291174 1975.39147829 C637.72168621 1981.70620071 637.70971431 1988.01951012 637.65643226 1994.33412354 C637.62763685 1997.91515323 637.62037004 2001.49245975 637.67568709 2005.07326233 C638.01216844 2028.35517836 638.01216844 2028.35517836 630.95559957 2036.08594679 C628.58907284 2038.30617952 626.14962265 2040.30504775 623.5058321 2042.18525517 C621.39971139 2043.68912725 619.52375722 2045.4022763 617.62792969 2047.16015625 C617.01691406 2047.67707031 616.40589844 2048.19398438 615.77636719 2048.7265625 C613.54892936 2050.62859275 611.40769997 2052.61373345 609.25292969 2054.59765625 C603.6584681 2059.63947345 597.76895202 2064.23885322 591.81152344 2068.83789062 C589.86731072 2070.35594762 587.94916154 2071.90231258 586.03417969 2073.45703125 C576.59636658 2081.05395535 566.76545323 2087.94613378 556.69042969 2094.66015625 C556.0675708 2095.07627167 555.44471191 2095.49238708 554.80297852 2095.92111206 C542.43442382 2104.16484585 529.73130385 2111.8042609 516.81542969 2119.16015625 C515.93242187 2119.66313232 515.04941406 2120.1661084 514.13964844 2120.68432617 C504.12232562 2126.36947522 494.03607226 2131.91827589 483.87792969 2137.34765625 C482.83266113 2137.90791504 481.78739258 2138.46817383 480.71044922 2139.04541016 C427.58849439 2167.38813239 371.80754618 2189.73122366 314.62792969 2208.41015625 C313.68677307 2208.71808105 312.74561646 2209.02600586 311.77593994 2209.34326172 C293.63637067 2215.25903985 275.33871691 2220.5304856 256.87792969 2225.34765625 C255.6380127 2225.67411133 254.3980957 2226.00056641 253.12060547 2226.33691406 C182.41326937 2244.87994047 110.22882142 2255.88518865 37.43945312 2261.96142578 C33.58589206 2262.28436379 29.73556322 2262.63486115 25.88574219 2263 C13.5095614 2264.15302292 1.15238165 2264.69924748 -11.26977539 2265.0065918 C-12.50493896 2265.03793213 -13.74010254 2265.06927246 -15.01269531 2265.1015625 C-16.63739746 2265.13745483 -16.63739746 2265.13745483 -18.29492188 2265.17407227 C-21.41449702 2265.31556359 -24.4803855 2265.5607365 -27.58740234 2265.85253906 C-34.98425936 2266.48732094 -42.36858413 2266.51181903 -49.78613281 2266.515625 C-51.30504382 2266.51885798 -52.82395455 2266.52222335 -54.34286499 2266.52571106 C-57.5316438 2266.53167319 -60.7203957 2266.533555 -63.90917969 2266.53295898 C-67.08078918 2266.53287928 -70.25224941 2266.53956987 -73.42382812 2266.5534668 C-98.75606148 2266.65602105 -123.76934183 2265.55492903 -149.12207031 2264.34765625 C-149.12207031 2305.92765625 -149.12207031 2347.50765625 -149.12207031 2390.34765625 C-166.06698822 2390.33353699 -183.01190613 2390.31941772 -200.4703064 2390.30487061 C-211.96783437 2390.29570199 -223.46536234 2390.28658445 -234.96289062 2390.27781677 C-235.69947703 2390.27725442 -236.43606343 2390.27669207 -237.19497064 2390.27611268 C-249.22975245 2390.26693093 -261.26453438 2390.25791642 -273.29931641 2390.24902344 C-274.51444238 2390.24812518 -274.51444238 2390.24812518 -275.75411635 2390.24720877 C-362.60882938 2390.18307695 -449.46353076 2390.1365691 -536.31826782 2390.12554932 C-538.24902 2390.12529989 -540.17977219 2390.12505045 -542.11052437 2390.12480099 C-582.64352377 2390.11961763 -623.17652304 2390.11690517 -663.70952278 2390.11704452 C-684.07263001 2390.11711189 -704.43573721 2390.1167048 -724.79884443 2390.11584896 C-727.87041317 2390.11572262 -730.94198192 2390.11560983 -734.01355067 2390.11549761 C-781.27365692 2390.11365153 -828.53373367 2390.10167178 -875.79382324 2390.06011963 C-876.80883512 2390.0592274 -877.823847 2390.05833518 -878.86961681 2390.05741592 C-895.23309816 2390.04296998 -911.5965787 2390.02766831 -927.96005915 2390.01225295 C-975.13072758 2389.9678285 -1022.30136267 2389.92980225 -1069.47205544 2389.93352127 C-1070.44347673 2389.93359478 -1071.41489802 2389.9336683 -1072.41575632 2389.93374404 C-1093.74832413 2389.93547184 -1115.08088991 2389.94044913 -1136.41345623 2389.94849698 C-1144.99886964 2389.9516787 -1153.58428319 2389.9543933 -1162.16969681 2389.95694733 C-1163.10929309 2389.95723811 -1164.04888937 2389.9575289 -1165.01695826 2389.9578285 C-1195.21755435 2389.96694309 -1225.41796613 2389.93813695 -1255.61851946 2389.88915232 C-1286.07760026 2389.8399238 -1316.53644801 2389.82847624 -1346.99554942 2389.86846669 C-1351.21889405 2389.87400229 -1355.4422391 2389.87911131 -1359.66558456 2389.88396263 C-1360.49337306 2389.88492894 -1361.32116155 2389.88589525 -1362.17403454 2389.88689085 C-1375.20364643 2389.9010013 -1388.23284911 2389.87511864 -1401.26238402 2389.8319355 C-1414.12169771 2389.79015883 -1426.98041923 2389.79214749 -1439.8397227 2389.83849404 C-1446.69982048 2389.86206515 -1453.55840763 2389.86647409 -1460.41841476 2389.81710324 C-1489.98301599 2389.61794432 -1516.18301777 2391.36220337 -1544.24877545 2401.08652648 C-1552.98316921 2404.07806429 -1561.93540841 2406.13547459 -1570.93457031 2408.16015625 C-1571.7818703 2408.35099809 -1572.62917029 2408.54183994 -1573.50214604 2408.73846486 C-1628.26704147 2421.02182775 -1683.66498197 2428.08129677 -1739.62207031 2432.09765625 C-1740.42650574 2432.1568222 -1741.23094116 2432.21598816 -1742.05975342 2432.27694702 C-2070.88865901 2456.06422685 -2401.43390881 2434.34765625 -2731.12207031 2434.34765625 C-2731.12207031 1724.18765625 -2731.12207031 1014.02765625 -2731.12207031 282.34765625 C-1761.85340365 282.34765625 -1761.85340365 282.34765625 -1726.99707031 285.09765625 C-1725.89120575 285.18380188 -1724.78534119 285.26994751 -1723.64596558 285.35870361 C-1670.92085258 289.50099795 -1619.00564275 297.29154533 -1567.74707031 310.41015625 C-1566.60383301 310.70196777 -1565.4605957 310.9937793 -1564.28271484 311.29443359 C-1552.77766524 314.31260742 -1541.52669401 317.87668382 -1530.12207031 321.34765625 C-1530.12207031 293.95765625 -1530.12207031 266.56765625 -1530.12207031 238.34765625 C-1434.09207031 238.34765625 -1338.06207031 238.34765625 -1239.12207031 238.34765625 C-1239.18910156 261.10863281 -1239.25613281 283.86960937 -1239.32519531 307.3203125 C-1239.34090812 321.75328677 -1239.3536524 336.18617235 -1239.35253906 350.61914062 C-1239.35210981 358.20467147 -1239.35242984 365.79020171 -1239.35400391 373.37573242 C-1239.35425298 374.80162348 -1239.35425298 374.80162348 -1239.35450709 376.25632042 C-1239.35827083 391.56075084 -1239.40425512 406.8647737 -1239.46609846 422.16906709 C-1239.52871686 437.90018688 -1239.54535047 453.6308818 -1239.52016521 469.36210817 C-1239.50607366 479.05295725 -1239.52694867 488.74239006 -1239.59397247 498.43302315 C-1239.63661346 505.0974067 -1239.63419298 511.76087167 -1239.59791705 518.42528797 C-1239.57833184 522.25886488 -1239.57709098 526.089853 -1239.62991142 529.9231739 C-1239.86862104 548.35907176 -1237.64323373 562.22576601 -1227.53479147 578.04661071 C-1225.47622603 581.39960985 -1223.85111173 584.90497567 -1222.27441406 588.50390625 C-1221.98832677 589.14783575 -1221.70223947 589.79176525 -1221.40748286 590.45520777 C-1220.61421869 592.24823361 -1219.83572839 594.04716444 -1219.05957031 595.84765625 C-1218.77380127 596.50422211 -1218.48803223 597.16078796 -1218.19360352 597.83724976 C-1211.72927874 612.73024711 -1206.21033692 627.93244454 -1201.12207031 643.34765625 C-1200.76379654 644.4230365 -1200.76379654 644.4230365 -1200.39828491 645.5201416 C-1196.67989765 656.73339616 -1193.58076486 667.98476875 -1190.98901367 679.50976562 C-1190.43260624 681.98138086 -1189.86321504 684.44973993 -1189.29199219 686.91796875 C-1186.90070971 697.34443083 -1184.87325593 707.79569426 -1183.12207031 718.34765625 C-1182.96907471 719.25016113 -1182.8160791 720.15266602 -1182.65844727 721.08251953 C-1180.88373573 731.73078872 -1179.61608686 742.42476347 -1178.49707031 753.16015625 C-1178.37396484 754.33932617 -1178.25085937 755.51849609 -1178.12402344 756.73339844 C-1176.70910321 770.77706803 -1175.94824327 784.74765611 -1175.84863281 798.85546875 C-1175.84237444 799.61749855 -1175.83611607 800.37952835 -1175.82966805 801.16464996 C-1175.7837873 806.93395945 -1175.76017659 812.70318601 -1175.74707031 818.47265625 C-1175.74383947 819.74423962 -1175.74383947 819.74423962 -1175.74054337 821.04151154 C-1175.68535037 848.00271289 -1176.59718547 874.44098215 -1180.77709961 901.12768555 C-1181.11490792 903.30156452 -1181.43670776 905.47718252 -1181.75292969 907.65429688 C-1189.75728215 962.50192816 -1205.03989497 1026.89543165 -1236.67531025 1073.64286828 C-1238.31121153 1076.7012649 -1238.5048342 1078.52174356 -1238.52194023 1081.96654892 C-1238.53469706 1083.09260725 -1238.5474539 1084.21866558 -1238.5605973 1085.37884688 C-1238.55936209 1086.61102895 -1238.55812689 1087.84321102 -1238.55685425 1089.11273193 C-1238.572341 1091.08197077 -1238.572341 1091.08197077 -1238.58814061 1093.09099221 C-1238.61620046 1096.73364795 -1238.62546658 1100.37614567 -1238.6315167 1104.01889563 C-1238.64118686 1107.94818229 -1238.66789061 1111.87736051 -1238.69207764 1115.80657959 C-1238.74656126 1125.29364485 -1238.7722406 1134.78070733 -1238.79492873 1144.2678932 C-1238.80627721 1148.73666909 -1238.82079964 1153.20543447 -1238.83502579 1157.67420197 C-1238.88123462 1172.53037098 -1238.92052386 1187.38653094 -1238.93839836 1202.24276352 C-1238.94310813 1206.0964127 -1238.94782782 1209.95006187 -1238.95263672 1213.80371094 C-1238.95442008 1215.24039542 -1238.95442008 1215.24039542 -1238.95623948 1216.70610383 C-1238.97679288 1232.22611836 -1239.0449317 1247.74553734 -1239.1331576 1263.26530001 C-1239.22301713 1279.20208203 -1239.27149765 1295.13856237 -1239.27905476 1311.07559991 C-1239.28430112 1320.02270428 -1239.30753598 1328.96896626 -1239.37679672 1337.91582489 C-1239.43561965 1345.53429904 -1239.45683085 1353.15171135 -1239.42912506 1360.77038261 C-1239.41612948 1364.65681572 -1239.4208303 1368.54107291 -1239.47370529 1372.42721558 C-1239.53058272 1376.64456542 -1239.50187653 1380.85707455 -1239.46505737 1385.074646 C-1239.51004972 1386.90953477 -1239.51004972 1386.90953477 -1239.555951 1388.78149199 C-1239.44810602 1393.94175545 -1239.25153635 1397.08517166 -1235.73070359 1401.02065706 C-1232.94899648 1403.29734017 -1230.0812269 1405.31112726 -1227.12207031 1407.34765625 C-1225.09239372 1409.2507479 -1223.18059705 1411.21337748 -1221.26660156 1413.23046875 C-1219.36349915 1415.10930574 -1217.4099748 1416.83217768 -1215.37988281 1418.5703125 C-1211.02907093 1422.34908528 -1207.09847 1426.43612188 -1203.18457031 1430.66015625 C-1202.48436768 1431.41143799 -1201.78416504 1432.16271973 -1201.06274414 1432.93676758 C-1199.07832468 1435.06988615 -1197.09991373 1437.20844289 -1195.12207031 1439.34765625 C-1194.24808594 1440.28351563 -1193.37410156 1441.219375 -1192.47363281 1442.18359375 C-1186.76926012 1448.38220812 -1181.59829317 1454.95725616 -1176.45996094 1461.62451172 C-1175.24319933 1463.19164738 -1174.00412075 1464.74139138 -1172.76269531 1466.2890625 C-1160.59107579 1481.62611999 -1149.75634329 1498.30493125 -1140.12207031 1515.34765625 C-1139.67444336 1516.1375293 -1139.22681641 1516.92740234 -1138.765625 1517.74121094 C-1125.94510697 1540.49998243 -1115.1045065 1563.81164408 -1106.12207031 1588.34765625 C-1105.77822296 1589.28547943 -1105.77822296 1589.28547943 -1105.4274292 1590.24224854 C-1091.32938371 1628.87689759 -1081.95919005 1669.52127716 -1077.12207031 1710.34765625 C-1076.99590332 1711.3958252 -1076.86973633 1712.44399414 -1076.73974609 1713.52392578 C-1073.25111387 1742.91209462 -1071.729907 1772.14666847 -1071.8040123 1801.71595001 C-1071.80967691 1804.01593597 -1071.81248174 1806.31591449 -1071.81509399 1808.61590576 C-1071.85135365 1830.59512888 -1072.17037517 1852.44959143 -1074.86883545 1874.28973389 C-1075.13485075 1876.45151697 -1075.38902795 1878.61449659 -1075.64208984 1880.77783203 C-1078.25972101 1902.87764827 -1082.13437173 1924.66238089 -1087.12207031 1946.34765625 C-1087.27140015 1946.99825012 -1087.42072998 1947.64884399 -1087.57458496 1948.31915283 C-1098.05922524 1993.70649623 -1114.68707776 2037.77291402 -1135.99853516 2079.16259766 C-1136.81544303 2080.75132549 -1137.6276463 2082.34247509 -1138.43701172 2083.93505859 C-1145.4664367 2097.75999631 -1153.00908997 2111.13281571 -1161.12207031 2124.34765625 C-1163.10207031 2127.64765625 -1165.08207031 2130.94765625 -1167.12207031 2134.34765625 C-983.31207031 2134.01765625 -799.50207031 2133.68765625 -610.12207031 2133.34765625 C-619.36207031 2127.07765625 -628.60207031 2120.80765625 -638.12207031 2114.34765625 C-649.03070896 2106.61495037 -659.71774837 2098.73675622 -670.12207031 2090.34765625 C-671.06308594 2089.5896875 -672.00410156 2088.83171875 -672.97363281 2088.05078125 C-682.71429223 2080.13474103 -692.33549761 2072.07221447 -701.61035156 2063.61328125 C-703.70170425 2061.72683559 -705.81335898 2059.87144428 -707.93847656 2058.0234375 C-721.81595927 2045.90188118 -735.71088091 2033.14277165 -747.62597656 2019.05859375 C-749.17324637 2017.28913115 -750.8068234 2015.66791177 -752.49707031 2014.03515625 C-756.16439967 2010.42462182 -759.33344859 2006.48388631 -762.55566406 2002.4765625 C-764.86078601 1999.63481759 -767.26014766 1996.88518326 -769.67822266 1994.1394043 C-814.15290361 1943.5878925 -849.4512824 1882.82603379 -874.12207031 1820.34765625 C-874.67773682 1818.9409668 -874.67773682 1818.9409668 -875.24462891 1817.50585938 C-880.18923903 1804.87520259 -884.63455811 1792.08396215 -888.93457031 1779.22265625 C-889.16554413 1778.53350128 -889.39651794 1777.84434631 -889.63449097 1777.13430786 C-913.62464818 1705.36331627 -924.53378788 1628.83585493 -926.62475586 1553.35449219 C-926.6840083 1551.24268673 -926.74950326 1549.1311376 -926.81542969 1547.01953125 C-927.17478415 1534.44782896 -927.12207031 1521.9414076 -927.12207031 1509.34765625 C-836.70207031 1509.34765625 -746.28207031 1509.34765625 -653.12207031 1509.34765625 C-652.13207031 1521.88765625 -651.14207031 1534.42765625 -650.12207031 1547.34765625 C-646.40315051 1583.07585011 -640.83925779 1618.47890632 -632.12207031 1653.34765625 C-631.82751953 1654.52585937 -631.53296875 1655.7040625 -631.22949219 1656.91796875 C-623.69924491 1686.51850879 -613.77257813 1715.54137006 -601.12207031 1743.34765625 C-600.65333496 1744.38003418 -600.18459961 1745.41241211 -599.70166016 1746.47607422 C-589.84751822 1767.98178026 -578.79437564 1789.00634628 -565.12207031 1808.34765625 C-564.30542687 1809.5219705 -563.48902392 1810.69645203 -562.67285156 1811.87109375 C-547.4884684 1833.56477672 -530.13861639 1853.35795297 -511.50723267 1872.13772583 C-510.10295171 1873.55390723 -508.7026554 1874.97403633 -507.30249023 1876.39428711 C-501.22039624 1882.48403635 -494.8476561 1887.9846372 -488.12207031 1893.34765625 C-487.09462287 1894.21116658 -486.07121488 1895.07956051 -485.05566406 1895.95703125 C-465.32567822 1912.8772695 -443.1099994 1927.38138665 -420.45068359 1940.03857422 C-418.17100401 1941.32014708 -415.90959109 1942.62971656 -413.64941406 1943.9453125 C-340.56329115 1985.95232053 -254.15020647 2005.16950833 -157.74707031 2015.59765625 C-156.96731842 2015.67478851 -156.18756653 2015.75192078 -155.38418579 2015.83139038 C-124.4165897 2018.84781874 -93.4551921 2019.68309594 -62.35888672 2019.60839844 C-57.57985539 2019.59700502 -52.80104697 2019.60379578 -48.0220232 2019.61527729 C-23.98985993 2019.66420375 -0.0947307 2019.06625136 23.87792969 2017.34765625 C24.90037781 2017.27440125 25.92282593 2017.20114624 26.97625732 2017.12567139 C32.51445302 2016.71467516 38.04052233 2016.22100628 43.56542969 2015.66015625 C44.3822522 2015.57873383 45.19907471 2015.4973114 46.04064941 2015.41342163 C100.87919192 2009.8890297 157.09265427 2001.3265913 209.5246582 1983.7722168 C213.61144932 1982.41623569 217.73086048 1981.21107822 221.87011719 1980.02734375 C230.45220123 1977.53297855 238.89401254 1974.71094423 247.31542969 1971.72265625 C248.04438446 1971.46476318 248.77333923 1971.20687012 249.52438354 1970.94116211 C272.30550612 1962.85477674 294.24318264 1953.11953451 315.87792969 1942.34765625 C316.84827148 1941.8671582 317.81861328 1941.38666016 318.81835938 1940.89160156 C350.67281455 1925.02346318 380.28516011 1905.07956397 406.29199219 1880.74609375 C408.40047612 1878.79049082 410.54290309 1876.93468258 412.75292969 1875.09765625 C423.25888814 1865.94589618 432.27613111 1855.05387084 440.65039062 1843.96484375 C441.79626722 1842.45524022 442.96517965 1840.96319955 444.13574219 1839.47265625 C482.16629079 1790.40098064 502.74166965 1726.13903575 503.11621094 1664.3203125 C503.12107576 1663.66349298 503.12594059 1663.00667347 503.13095284 1662.32995033 C503.1673515 1657.35669198 503.18365277 1652.38353691 503.19042969 1647.41015625 C503.19215557 1646.31443172 503.19215557 1646.31443172 503.19391632 1645.19657135 C503.21893391 1622.35441803 502.66741883 1599.92418942 498.87792969 1577.34765625 C498.65607123 1575.98926043 498.43422904 1574.63086195 498.21240234 1573.27246094 C493.33417609 1543.86286064 485.25892923 1515.06596737 471.87792969 1488.34765625 C471.28238281 1487.14471924 471.28238281 1487.14471924 470.67480469 1485.91748047 C464.60262873 1473.72054571 458.01717617 1462.27975282 449.87792969 1451.34765625 C449.44013184 1450.75436523 449.00233398 1450.16107422 448.55126953 1449.54980469 C439.296891 1437.10319703 428.89927429 1425.18969277 416.87792969 1415.34765625 C416.08257813 1414.64125 415.28722656 1413.93484375 414.46777344 1413.20703125 C368.35804633 1372.99883039 304.58485193 1348.75754585 247.87792969 1328.34765625 C246.96285645 1328.01733398 246.0477832 1327.68701172 245.10498047 1327.34667969 C225.19728252 1320.19691407 205.01728717 1313.80863086 184.87792969 1307.34765625 C184.05170105 1307.08190796 183.22547241 1306.81615967 182.37420654 1306.5423584 C172.63787199 1303.41521854 162.90277548 1300.42291025 153.00292969 1297.84765625 C147.16918844 1296.31812462 141.34096081 1294.78364326 135.55158997 1293.0933075 C120.99743602 1288.84616293 106.34147766 1285.06645356 91.63183594 1281.3984375 C90.99348541 1281.23891295 90.35513487 1281.07938839 89.69744039 1280.91502976 C59.9843737 1273.48977601 30.14211686 1266.67349566 0.25721669 1259.97934359 C-7.11802866 1258.32694483 -14.49128733 1256.66575441 -21.86444902 1255.00408709 C-34.00735472 1252.26754525 -46.15114367 1249.53495543 -58.29573202 1246.80589139 C-75.47099975 1242.94625468 -92.64318251 1239.07310866 -109.81347656 1235.19140625 C-111.06105114 1234.9093741 -112.30862572 1234.62734196 -113.59400558 1234.33676338 C-120.94713726 1232.67435448 -128.30013807 1231.01136745 -135.65307617 1229.34810257 C-139.24192094 1228.53632102 -142.83079434 1227.72466619 -146.41967773 1226.91305542 C-158.86980059 1224.09749427 -171.31974751 1221.28115736 -183.76944923 1218.46373463 C-189.82662971 1217.093051 -195.88399838 1215.72320368 -201.94155884 1214.35420036 C-337.77073945 1183.65626992 -337.77073945 1183.65626992 -383.45019531 1170.0234375 C-388.40087108 1168.54838383 -393.3710839 1167.15439056 -398.3503418 1165.77929688 C-411.69638086 1162.09306062 -424.94669985 1158.1487376 -438.1473999 1153.9720459 C-439.5117624 1153.54063526 -440.87640462 1153.11010862 -442.24127197 1152.68029785 C-481.51112302 1140.31362675 -520.29951513 1126.64665347 -558.12207031 1110.34765625 C-558.74905823 1110.07800049 -559.37604614 1109.80834473 -560.02203369 1109.53051758 C-607.09648475 1089.25116381 -651.27018413 1064.82694349 -691.12207031 1032.34765625 C-692.40597656 1031.32478516 -692.40597656 1031.32478516 -693.71582031 1030.28125 C-700.05455284 1025.19022776 -706.04932156 1019.81246514 -711.98535156 1014.265625 C-714.74418892 1011.68819065 -717.54941996 1009.16772005 -720.37207031 1006.66015625 C-727.0775097 1000.63938896 -733.39673037 994.33408772 -739.25878906 987.48828125 C-741.41093809 985.01579139 -743.6418775 982.62494268 -745.87207031 980.22265625 C-751.17124923 974.40961755 -756.00605662 968.29436902 -760.79589844 962.05908203 C-762.01676392 960.48355423 -763.2635819 958.92822763 -764.51269531 957.375 C-819.94533274 887.71709966 -846.05912207 798.87297276 -850.42749023 568.28613281 C-845.96184989 529.29788231 -838.19194947 489.62409587 -826.06982422 452.26855469 C-825.41674324 450.25581363 -824.7710137 448.24067735 -824.13134766 446.22363281 C-815.41402316 418.74358094 -804.60504344 392.32676231 -792.12207031 366.34765625 C-791.67009277 365.39987305 -791.21811523 364.45208984 -790.75244141 363.47558594 C-783.64469612 348.63729184 -775.6069214 334.43780913 -767.12207031 320.34765625 C-766.57260742 319.43064941 -766.02314453 318.51364258 -765.45703125 317.56884766 C-747.85349505 288.28431194 -727.20432155 260.98464077 -704.93457031 235.09765625 C-704.46680176 234.55052979 -703.9990332 234.00340332 -703.51708984 233.43969727 C-692.96391585 221.25358014 -681.67280271 209.73183297 -670.26074219 198.35595703 C-668.2237461 196.32439425 -666.1922508 194.28743789 -664.16113281 192.25 C-662.83853714 190.92806418 -661.51563182 189.60643808 -660.19238281 188.28515625 C-659.5995047 187.69025391 -659.00662659 187.09535156 -658.39578247 186.48242188 C-654.1322686 182.24228671 -649.67638064 178.27167719 -645.12207031 174.34765625 C-643.93083998 173.30206288 -642.74056455 172.25537934 -641.55175781 171.20703125 C-633.28736016 163.96143732 -624.85795664 157.01599199 -616.12207031 150.34765625 C-615.39955078 149.79384277 -614.67703125 149.2400293 -613.93261719 148.66943359 C-595.19905068 134.3439964 -576.09943635 120.68152731 -555.68408203 108.84716797 C-553.06389582 107.31360748 -550.46905311 105.74297494 -547.87597656 104.1640625 C-503.17402297 77.17696175 -454.46699029 57.0456718 -404.80517578 41.20654297 C-402.23992139 40.38538146 -399.68312104 39.54131916 -397.12597656 38.6953125 C-364.38967622 28.09227196 -330.29902361 21.11948218 -296.51217651 14.79931641 C-294.03953712 14.33205989 -291.57028999 13.8489909 -289.10083008 13.36523438 C-273.7971213 10.4170267 -258.40894659 8.52828249 -242.93457031 6.72265625 C-240.40129665 6.42116501 -237.86809311 6.11908399 -235.33496094 5.81640625 C-228.26606636 4.97516046 -221.19495302 4.15464548 -214.12207031 3.34765625 C-213.21501343 3.24369537 -212.30795654 3.1397345 -211.37341309 3.03262329 C-198.68716854 1.59178919 -185.98780947 0.60239924 -173.24707031 -0.21484375 C-171.75007599 -0.31147812 -171.75007599 -0.31147812 -170.22283936 -0.4100647 C-113.93029258 -4.00400115 -56.21015623 -5.20433911 0 0 Z " fill="#0033E6" transform="translate(3364.1220703125,487.65234375)"/>
<path d="M0 0 C3.82627967 0.34302583 7.65388656 0.65812571 11.483078 0.96644592 C105.06246528 8.5029551 197.51200538 25.3581039 305.87792969 64.34765625 C306.53114197 64.6005542 307.18435425 64.85345215 307.85736084 65.11401367 C349.84260673 81.41941255 391.0182124 100.54375029 429.87792969 123.34765625 C431.67965875 124.38993556 433.48174622 125.43159554 435.28417969 126.47265625 C466.24977793 144.45750228 496.4324297 164.27924031 523.87792969 187.34765625 C524.40515625 187.78996582 524.93238281 188.23227539 525.47558594 188.68798828 C539.72962373 200.65592315 553.56550189 212.95766007 566.75292969 226.09765625 C567.80468384 227.14252197 567.80468384 227.14252197 568.87768555 228.20849609 C572.85399705 232.19661796 576.65024543 236.28798135 580.328125 240.55273438 C582.28165453 242.81523424 584.29738593 245.01768595 586.31542969 247.22265625 C590.71673001 252.11134889 594.82223204 257.17103714 598.87792969 262.34765625 C599.89425617 263.61116042 600.91123541 264.87413969 601.92871094 266.13671875 C611.69395121 278.35738887 620.4049726 291.20499623 628.87792969 304.34765625 C629.4387518 305.10058975 629.99957392 305.85352324 630.57739064 306.6292729 C635.63998732 313.77941459 636.88861237 319.02634489 636.76342851 327.68794852 C636.77411434 328.89051667 636.78480018 330.09308482 636.79580983 331.33209443 C636.81833498 334.66021036 636.80973105 337.98556094 636.78778876 341.31350128 C636.77160529 344.95086333 636.79625143 348.58799577 636.8155565 352.22531113 C636.84389171 358.62113961 636.84623285 365.01656976 636.83161489 371.41243825 C636.80985151 380.98724126 636.82838972 390.56167911 636.85470584 400.13645562 C636.89835478 416.45498288 636.90864679 432.77338018 636.90078354 449.09195709 C636.89291459 465.6306163 636.90014313 482.1691652 636.92579079 498.70780754 C636.92739836 499.75215503 636.92900593 500.79650252 636.93066222 501.8724969 C636.93725363 506.12592235 636.94394344 510.37934763 636.95076055 514.63277273 C637.02178733 559.01367741 637.04320298 603.39452027 637.04730532 647.7754753 C637.04775855 652.55312088 637.04823412 657.33076645 637.04872918 662.10841203 C637.04884821 663.2939733 637.04896724 664.47953458 637.04908988 665.70102195 C637.05194838 691.96621754 637.06727549 718.2314013 637.08482009 744.49659062 C637.0920185 755.30963702 637.0989487 766.12268361 637.10593385 776.93573016 C637.10709503 778.72781554 637.10709503 778.72781554 637.10827968 780.55610467 C637.15255113 849.02382704 637.18142314 917.49154167 637.1782198 985.95927906 C637.17810935 988.521848 637.17799919 991.08441694 637.17788934 993.64698588 C637.17737565 1005.21694915 637.17675846 1016.78691241 637.17611215 1028.35687567 C637.17582428 1033.51629175 637.17554325 1038.67570783 637.17526295 1043.83512391 C637.17512019 1046.41750484 637.17497305 1048.99988578 637.17482154 1051.58226671 C637.17005902 1133.25358421 637.22129354 1214.9246893 637.31860352 1296.59594727 C637.34311017 1317.17536514 637.36739617 1337.75478321 637.39045429 1358.33420277 C637.39187441 1359.60131807 637.39329453 1360.86843338 637.39475768 1362.17394612 C637.4382534 1401.2192295 637.46461978 1440.26449545 637.4734602 1479.30980206 C637.47387968 1481.14823577 637.47387968 1481.14823577 637.47430764 1483.02380955 C637.48028018 1509.92739319 637.48210906 1536.83097574 637.480115 1563.73455993 C637.4794396 1573.36078213 637.4790753 1582.98700434 637.4788639 1592.61322656 C637.4788085 1595.00802928 637.47873707 1597.40283199 637.47864953 1599.7976347 C637.47741468 1637.9749474 637.51732487 1676.15207843 637.57772624 1714.32933905 C637.63824115 1752.77370457 637.65364439 1791.21781837 637.60739699 1829.66221146 C637.60101076 1834.97257446 637.59510785 1840.2829379 637.58949089 1845.59330177 C637.58837028 1846.63429183 637.58724967 1847.67528189 637.5860951 1848.7478171 C637.56961335 1865.24196917 637.60015113 1881.73568636 637.6501892 1898.22975666 C637.69839142 1914.44215232 637.69675673 1930.65390473 637.64184424 1946.86628609 C637.61113214 1956.37536643 637.61876803 1965.8825541 637.68291174 1975.39147829 C637.72168621 1981.70620071 637.70971431 1988.01951012 637.65643226 1994.33412354 C637.62763685 1997.91515323 637.62037004 2001.49245975 637.67568709 2005.07326233 C638.01216844 2028.35517836 638.01216844 2028.35517836 630.95559957 2036.08594679 C628.58907284 2038.30617952 626.14962265 2040.30504775 623.5058321 2042.18525517 C621.39971139 2043.68912725 619.52375722 2045.4022763 617.62792969 2047.16015625 C617.01691406 2047.67707031 616.40589844 2048.19398438 615.77636719 2048.7265625 C613.54892936 2050.62859275 611.40769997 2052.61373345 609.25292969 2054.59765625 C603.6584681 2059.63947345 597.76895202 2064.23885322 591.81152344 2068.83789062 C589.86731072 2070.35594762 587.94916154 2071.90231258 586.03417969 2073.45703125 C576.59636658 2081.05395535 566.76545323 2087.94613378 556.69042969 2094.66015625 C556.0675708 2095.07627167 555.44471191 2095.49238708 554.80297852 2095.92111206 C542.43442382 2104.16484585 529.73130385 2111.8042609 516.81542969 2119.16015625 C515.93242187 2119.66313232 515.04941406 2120.1661084 514.13964844 2120.68432617 C504.12232562 2126.36947522 494.03607226 2131.91827589 483.87792969 2137.34765625 C482.83266113 2137.90791504 481.78739258 2138.46817383 480.71044922 2139.04541016 C427.58849439 2167.38813239 371.80754618 2189.73122366 314.62792969 2208.41015625 C313.21619476 2208.87204346 313.21619476 2208.87204346 311.77593994 2209.34326172 C293.63637067 2215.25903985 275.33871691 2220.5304856 256.87792969 2225.34765625 C255.6380127 2225.67411133 254.3980957 2226.00056641 253.12060547 2226.33691406 C182.41326937 2244.87994047 110.22882142 2255.88518865 37.43945312 2261.96142578 C33.58589206 2262.28436379 29.73556322 2262.63486115 25.88574219 2263 C13.5095614 2264.15302292 1.15238165 2264.69924748 -11.26977539 2265.0065918 C-12.50493896 2265.03793213 -13.74010254 2265.06927246 -15.01269531 2265.1015625 C-16.63739746 2265.13745483 -16.63739746 2265.13745483 -18.29492188 2265.17407227 C-21.43718237 2265.3165925 -24.52964587 2265.56056052 -27.65991211 2265.8503418 C-34.65119584 2266.45005852 -41.61206597 2266.52711615 -48.62597656 2266.55078125 C-50.04152442 2266.55764964 -51.4570721 2266.56455274 -52.87261963 2266.57148743 C-57.47660445 2266.59068149 -62.08055104 2266.59491562 -66.68457031 2266.59765625 C-67.86469507 2266.59920275 -67.86469507 2266.59920275 -69.06866074 2266.60078049 C-95.71699707 2266.63351618 -122.30974785 2266.01112788 -148.93457031 2264.91015625 C-150.17508589 2264.8594976 -150.17508589 2264.8594976 -151.44066238 2264.80781555 C-156.92482 2264.58335802 -162.40833014 2264.34664631 -167.89160156 2264.1015625 C-168.59785927 2264.07098566 -169.30411697 2264.04040882 -170.03177643 2264.00890541 C-172.00193196 2263.92252114 -173.97180267 2263.82971199 -175.94165039 2263.73657227 C-177.04495193 2263.6854982 -178.14825348 2263.63442413 -179.2849884 2263.58180237 C-181.70583401 2263.38200849 -183.79249999 2262.9882279 -186.12207031 2262.34765625 C-188.10615524 2262.168749 -190.09403549 2262.03017343 -192.08300781 2261.91796875 C-193.26628662 2261.84634521 -194.44956543 2261.77472168 -195.66870117 2261.70092773 C-196.93206299 2261.62559814 -198.1954248 2261.55026855 -199.49707031 2261.47265625 C-209.66864259 2260.82655141 -219.70012186 2259.87177736 -229.78125 2258.38330078 C-234.60780052 2257.6745761 -239.37138969 2257.12513401 -244.24707031 2256.84765625 C-256.55881193 2256.11218781 -268.77150283 2253.82428882 -280.89233398 2251.6159668 C-285.86152571 2250.72003339 -290.84186329 2249.90576586 -295.82910156 2249.1171875 C-296.51702286 2249.00804016 -297.20494415 2248.89889282 -297.91371155 2248.78643799 C-301.39095627 2248.23518316 -304.86885311 2247.68868508 -308.34790039 2247.14892578 C-310.28185669 2246.84317627 -310.28185669 2246.84317627 -312.25488281 2246.53125 C-313.40875488 2246.35134521 -314.56262695 2246.17144043 -315.75146484 2245.98608398 C-319.28855701 2245.31612194 -322.66896213 2244.35915994 -326.12207031 2243.34765625 C-328.78818479 2242.85851025 -331.44660996 2242.40003418 -334.12207031 2241.97265625 C-341.04239601 2240.81398825 -347.678046 2239.20503447 -354.43847656 2237.31640625 C-358.16991451 2236.33507368 -361.89457131 2235.56732582 -365.68457031 2234.84765625 C-372.27384298 2233.57341221 -378.63853254 2231.87544097 -385.06542969 2229.95410156 C-387.40775086 2229.26341711 -389.75627545 2228.59707708 -392.10644531 2227.93359375 C-400.80020875 2225.47889344 -409.47174651 2222.98214065 -418.08105469 2220.24462891 C-422.65314572 2218.79355746 -427.2445232 2217.42005397 -431.84643555 2216.06665039 C-438.45854568 2214.11718327 -444.97265676 2212.17900039 -451.32128906 2209.47265625 C-456.27084065 2207.48455184 -461.33318923 2205.80197664 -466.37792969 2204.07250977 C-509.03262665 2189.35154114 -550.39973653 2169.26474738 -589.09692383 2146.15332031 C-591.27038008 2144.85601723 -593.44763757 2143.56691278 -595.62963867 2142.28417969 C-604.79161763 2136.8749467 -613.65042108 2131.09800857 -622.43457031 2125.09765625 C-623.10672577 2124.64022034 -623.77888123 2124.18278442 -624.47140503 2123.71148682 C-640.07989505 2113.08853173 -655.41948794 2102.20248292 -670.12207031 2090.34765625 C-671.06308594 2089.5896875 -672.00410156 2088.83171875 -672.97363281 2088.05078125 C-682.71429223 2080.13474103 -692.33549761 2072.07221447 -701.61035156 2063.61328125 C-703.70170425 2061.72683559 -705.81335898 2059.87144428 -707.93847656 2058.0234375 C-721.81595927 2045.90188118 -735.71088091 2033.14277165 -747.62597656 2019.05859375 C-749.17324637 2017.28913115 -750.8068234 2015.66791177 -752.49707031 2014.03515625 C-756.16439967 2010.42462182 -759.33344859 2006.48388631 -762.55566406 2002.4765625 C-764.86078601 1999.63481759 -767.26014766 1996.88518326 -769.67822266 1994.1394043 C-814.15290361 1943.5878925 -849.4512824 1882.82603379 -874.12207031 1820.34765625 C-874.67773682 1818.9409668 -874.67773682 1818.9409668 -875.24462891 1817.50585938 C-880.18923903 1804.87520259 -884.63455811 1792.08396215 -888.93457031 1779.22265625 C-889.16554413 1778.53350128 -889.39651794 1777.84434631 -889.63449097 1777.13430786 C-913.62464818 1705.36331627 -924.53378788 1628.83585493 -926.62475586 1553.35449219 C-926.6840083 1551.24268673 -926.74950326 1549.1311376 -926.81542969 1547.01953125 C-927.17478415 1534.44782896 -927.12207031 1521.9414076 -927.12207031 1509.34765625 C-836.70207031 1509.34765625 -746.28207031 1509.34765625 -653.12207031 1509.34765625 C-652.13207031 1521.88765625 -651.14207031 1534.42765625 -650.12207031 1547.34765625 C-646.40315051 1583.07585011 -640.83925779 1618.47890632 -632.12207031 1653.34765625 C-631.82751953 1654.52585937 -631.53296875 1655.7040625 -631.22949219 1656.91796875 C-623.69924491 1686.51850879 -613.77257813 1715.54137006 -601.12207031 1743.34765625 C-600.41896729 1744.89622314 -600.41896729 1744.89622314 -599.70166016 1746.47607422 C-589.84751822 1767.98178026 -578.79437564 1789.00634628 -565.12207031 1808.34765625 C-564.30542687 1809.5219705 -563.48902392 1810.69645203 -562.67285156 1811.87109375 C-547.4884684 1833.56477672 -530.13861639 1853.35795297 -511.50723267 1872.13772583 C-510.10295171 1873.55390723 -508.7026554 1874.97403633 -507.30249023 1876.39428711 C-501.22039624 1882.48403635 -494.8476561 1887.9846372 -488.12207031 1893.34765625 C-487.09462287 1894.21116658 -486.07121488 1895.07956051 -485.05566406 1895.95703125 C-465.32567822 1912.8772695 -443.1099994 1927.38138665 -420.45068359 1940.03857422 C-418.17100401 1941.32014708 -415.90959109 1942.62971656 -413.64941406 1943.9453125 C-340.56329115 1985.95232053 -254.15020647 2005.16950833 -157.74707031 2015.59765625 C-156.96731842 2015.67478851 -156.18756653 2015.75192078 -155.38418579 2015.83139038 C-124.4165897 2018.84781874 -93.4551921 2019.68309594 -62.35888672 2019.60839844 C-57.57985539 2019.59700502 -52.80104697 2019.60379578 -48.0220232 2019.61527729 C-23.98985993 2019.66420375 -0.0947307 2019.06625136 23.87792969 2017.34765625 C24.90037781 2017.27440125 25.92282593 2017.20114624 26.97625732 2017.12567139 C32.51445302 2016.71467516 38.04052233 2016.22100628 43.56542969 2015.66015625 C44.3822522 2015.57873383 45.19907471 2015.4973114 46.04064941 2015.41342163 C100.87919192 2009.8890297 157.09265427 2001.3265913 209.5246582 1983.7722168 C213.61144932 1982.41623569 217.73086048 1981.21107822 221.87011719 1980.02734375 C230.45220123 1977.53297855 238.89401254 1974.71094423 247.31542969 1971.72265625 C248.04438446 1971.46476318 248.77333923 1971.20687012 249.52438354 1970.94116211 C272.30550612 1962.85477674 294.24318264 1953.11953451 315.87792969 1942.34765625 C316.84827148 1941.8671582 317.81861328 1941.38666016 318.81835938 1940.89160156 C350.67281455 1925.02346318 380.28516011 1905.07956397 406.29199219 1880.74609375 C408.40047612 1878.79049082 410.54290309 1876.93468258 412.75292969 1875.09765625 C423.25888814 1865.94589618 432.27613111 1855.05387084 440.65039062 1843.96484375 C441.79626722 1842.45524022 442.96517965 1840.96319955 444.13574219 1839.47265625 C482.16629079 1790.40098064 502.74166965 1726.13903575 503.11621094 1664.3203125 C503.12107576 1663.66349298 503.12594059 1663.00667347 503.13095284 1662.32995033 C503.1673515 1657.35669198 503.18365277 1652.38353691 503.19042969 1647.41015625 C503.19215557 1646.31443172 503.19215557 1646.31443172 503.19391632 1645.19657135 C503.21893391 1622.35441803 502.66741883 1599.92418942 498.87792969 1577.34765625 C498.65607123 1575.98926043 498.43422904 1574.63086195 498.21240234 1573.27246094 C493.33417609 1543.86286064 485.25892923 1515.06596737 471.87792969 1488.34765625 C471.28238281 1487.14471924 471.28238281 1487.14471924 470.67480469 1485.91748047 C464.60262873 1473.72054571 458.01717617 1462.27975282 449.87792969 1451.34765625 C449.44013184 1450.75436523 449.00233398 1450.16107422 448.55126953 1449.54980469 C439.296891 1437.10319703 428.89927429 1425.18969277 416.87792969 1415.34765625 C416.08257813 1414.64125 415.28722656 1413.93484375 414.46777344 1413.20703125 C368.35804633 1372.99883039 304.58485193 1348.75754585 247.87792969 1328.34765625 C246.96285645 1328.01733398 246.0477832 1327.68701172 245.10498047 1327.34667969 C225.19728252 1320.19691407 205.01728717 1313.80863086 184.87792969 1307.34765625 C184.05170105 1307.08190796 183.22547241 1306.81615967 182.37420654 1306.5423584 C172.63787199 1303.41521854 162.90277548 1300.42291025 153.00292969 1297.84765625 C147.16918844 1296.31812462 141.34096081 1294.78364326 135.55158997 1293.0933075 C120.99743602 1288.84616293 106.34147766 1285.06645356 91.63183594 1281.3984375 C90.99348541 1281.23891295 90.35513487 1281.07938839 89.69744039 1280.91502976 C59.9843737 1273.48977601 30.14211686 1266.67349566 0.25721669 1259.97934359 C-7.11802866 1258.32694483 -14.49128733 1256.66575441 -21.86444902 1255.00408709 C-34.00735472 1252.26754525 -46.15114367 1249.53495543 -58.29573202 1246.80589139 C-75.47099975 1242.94625468 -92.64318251 1239.07310866 -109.81347656 1235.19140625 C-111.06105114 1234.9093741 -112.30862572 1234.62734196 -113.59400558 1234.33676338 C-120.94713726 1232.67435448 -128.30013807 1231.01136745 -135.65307617 1229.34810257 C-139.24192094 1228.53632102 -142.83079434 1227.72466619 -146.41967773 1226.91305542 C-158.86980059 1224.09749427 -171.31974751 1221.28115736 -183.76944923 1218.46373463 C-189.82662971 1217.093051 -195.88399838 1215.72320368 -201.94155884 1214.35420036 C-337.77073945 1183.65626992 -337.77073945 1183.65626992 -383.45019531 1170.0234375 C-388.40087108 1168.54838383 -393.3710839 1167.15439056 -398.3503418 1165.77929688 C-411.69638086 1162.09306062 -424.94669985 1158.1487376 -438.1473999 1153.9720459 C-439.5117624 1153.54063526 -440.87640462 1153.11010862 -442.24127197 1152.68029785 C-481.51112302 1140.31362675 -520.29951513 1126.64665347 -558.12207031 1110.34765625 C-558.74905823 1110.07800049 -559.37604614 1109.80834473 -560.02203369 1109.53051758 C-607.09648475 1089.25116381 -651.27018413 1064.82694349 -691.12207031 1032.34765625 C-692.40597656 1031.32478516 -692.40597656 1031.32478516 -693.71582031 1030.28125 C-700.05455284 1025.19022776 -706.04932156 1019.81246514 -711.98535156 1014.265625 C-714.74418892 1011.68819065 -717.54941996 1009.16772005 -720.37207031 1006.66015625 C-727.0775097 1000.63938896 -733.39673037 994.33408772 -739.25878906 987.48828125 C-741.41093809 985.01579139 -743.6418775 982.62494268 -745.87207031 980.22265625 C-751.17124923 974.40961755 -756.00605662 968.29436902 -760.79589844 962.05908203 C-762.01676392 960.48355423 -763.2635819 958.92822763 -764.51269531 957.375 C-819.94533274 887.71709966 -846.05912207 798.87297276 -850.42749023 568.28613281 C-845.96184989 529.29788231 -838.19194947 489.62409587 -826.06982422 452.26855469 C-825.41674324 450.25581363 -824.7710137 448.24067735 -824.13134766 446.22363281 C-815.41402316 418.74358094 -804.60504344 392.32676231 -792.12207031 366.34765625 C-791.444104 364.92598145 -791.444104 364.92598145 -790.75244141 363.47558594 C-783.64469612 348.63729184 -775.6069214 334.43780913 -767.12207031 320.34765625 C-766.57260742 319.43064941 -766.02314453 318.51364258 -765.45703125 317.56884766 C-747.85349505 288.28431194 -727.20432155 260.98464077 -704.93457031 235.09765625 C-704.46680176 234.55052979 -703.9990332 234.00340332 -703.51708984 233.43969727 C-692.96391585 221.25358014 -681.67280271 209.73183297 -670.26074219 198.35595703 C-668.2237461 196.32439425 -666.1922508 194.28743789 -664.16113281 192.25 C-662.83853714 190.92806418 -661.51563182 189.60643808 -660.19238281 188.28515625 C-659.5995047 187.69025391 -659.00662659 187.09535156 -658.39578247 186.48242188 C-654.1322686 182.24228671 -649.67638064 178.27167719 -645.12207031 174.34765625 C-643.93083998 173.30206288 -642.74056455 172.25537934 -641.55175781 171.20703125 C-633.28736016 163.96143732 -624.85795664 157.01599199 -616.12207031 150.34765625 C-615.39955078 149.79384277 -614.67703125 149.2400293 -613.93261719 148.66943359 C-595.19905068 134.3439964 -576.09943635 120.68152731 -555.68408203 108.84716797 C-553.06389582 107.31360748 -550.46905311 105.74297494 -547.87597656 104.1640625 C-503.17402297 77.17696175 -454.46699029 57.0456718 -404.80517578 41.20654297 C-402.23992139 40.38538146 -399.68312104 39.54131916 -397.12597656 38.6953125 C-364.38967622 28.09227196 -330.29902361 21.11948218 -296.51217651 14.79931641 C-294.03953712 14.33205989 -291.57028999 13.8489909 -289.10083008 13.36523438 C-273.7971213 10.4170267 -258.40894659 8.52828249 -242.93457031 6.72265625 C-240.40129665 6.42116501 -237.86809311 6.11908399 -235.33496094 5.81640625 C-228.26606636 4.97516046 -221.19495302 4.15464548 -214.12207031 3.34765625 C-213.21501343 3.24369537 -212.30795654 3.1397345 -211.37341309 3.03262329 C-198.68716854 1.59178919 -185.98780947 0.60239924 -173.24707031 -0.21484375 C-171.75007599 -0.31147812 -171.75007599 -0.31147812 -170.22283936 -0.4100647 C-113.93029258 -4.00400115 -56.21015623 -5.20433911 0 0 Z " fill="#ED0000" transform="translate(3364.1220703125,487.65234375)"/>
<path d="M0 0 C969.26866667 0 969.26866667 0 1004.125 2.75 C1005.23086456 2.83614563 1006.33672913 2.92229126 1007.47610474 3.01104736 C1060.22995961 7.15559977 1112.14157842 14.9862352 1163.4375 28.0625 C1164.58911621 28.35431152 1165.74073242 28.64612305 1166.92724609 28.94677734 C1178.12089472 31.87493298 1188.92583809 35.47640303 1200 39 C1200 144.93 1200 250.86 1200 360 C1198 360 1198 360 1196.58984375 358.6015625 C1196.04457031 357.94929688 1195.49929688 357.29703125 1194.9375 356.625 C1194.31617188 355.89667969 1193.69484375 355.16835937 1193.0546875 354.41796875 C1192.37664062 353.62003906 1191.69859375 352.82210938 1191 352 C1186.3660615 346.66017482 1181.74245257 341.50347 1176.3203125 336.953125 C1174.53831926 335.45313069 1172.78898822 333.9142653 1171.0546875 332.359375 C1106.27141085 274.58882052 1016.11916541 257.38326803 894.625 245.875 C893.4397876 245.79934814 892.2545752 245.72369629 891.03344727 245.64575195 C870.1470469 244.39890782 849.26900011 243.85055361 828.34786987 243.84178162 C825.99230366 243.83720837 823.63673823 243.83221459 821.28117371 243.82684326 C814.87788762 243.81343472 808.4746067 243.80591158 802.07131037 243.79942851 C795.76100742 243.79255182 789.45071386 243.78010616 783.14041856 243.76832329 C770.32824628 243.74454876 757.51607114 243.72505833 744.70388794 243.70826721 C727.38013793 243.68554944 710.05640657 243.65680268 692.73266602 243.6270752 C651.11345225 243.55867239 609.49422514 243.49859089 567.875 243.4375 C474.85625 243.293125 381.8375 243.14875 286 243 C286 463.11 286 683.22 286 910 C379.864375 909.896875 473.72875 909.79375 570.4375 909.6875 C600.01044678 909.66260498 629.58339355 909.63770996 660.05249023 909.61206055 C686.6989241 909.57547079 686.6989241 909.57547079 713.34535217 909.5349884 C725.93224592 909.51597646 738.51910971 909.50657581 751.10601565 909.50204982 C763.99968333 909.49716897 776.89330259 909.48095314 789.78694421 909.45451616 C796.7586998 909.44050862 803.73037228 909.43102684 810.70214355 909.43496072 C886.88187624 909.46908531 966.77127603 906.41592572 1039.90039062 882.67333984 C1041.90042004 882.03193506 1043.90712606 881.42535342 1045.921875 880.83203125 C1085.71931498 868.93340889 1123.27561956 850.67171224 1156 825 C1157.34578125 823.94425781 1157.34578125 823.94425781 1158.71875 822.8671875 C1166.13457787 816.92173929 1173.10636092 810.53549756 1180 804 C1180.75410156 803.2884375 1181.50820312 802.576875 1182.28515625 801.84375 C1186.94719167 797.32074148 1191.00388244 792.4233848 1195.01953125 787.3203125 C1197 785 1197 785 1200 783 C1200 923.58 1200 1064.16 1200 1209 C1195.76211799 1208.1524236 1193.17779415 1207.26793749 1189.4140625 1205.375 C1187.7899646 1204.56953735 1187.7899646 1204.56953735 1186.13305664 1203.74780273 C1184.97539795 1203.17102783 1183.81773926 1202.59425293 1182.625 1202 C1108.51896482 1165.69306627 1024.63816809 1153.10441568 840.01084512 1145.68386918 C832.52908516 1145.68206291 825.04735509 1145.66835555 817.56560911 1145.65464286 C803.83589897 1145.62977639 790.10619278 1145.61345155 776.37646484 1145.60269165 C757.81215358 1145.58811438 739.24789289 1145.56124599 720.68359375 1145.5324707 C676.12240946 1145.46946254 631.56120273 1145.42323532 587 1145.375 C487.34 1145.25125 387.68 1145.1275 285 1145 C285 1395.14 285 1645.28 285 1903 C394.8075 1902.87625 504.615 1902.7525 617.75 1902.625 C652.4215918 1902.59100098 687.09318359 1902.55700195 722.81542969 1902.52197266 C753.89566216 1902.48206382 753.89566216 1902.48206382 784.97589111 1902.43954468 C799.7290538 1902.41943629 814.48220852 1902.40581425 829.23538071 1902.3953764 C844.30234861 1902.38455532 859.36929433 1902.3663079 874.43624504 1902.34107121 C883.37802226 1902.3263078 892.31976585 1902.31675638 901.26155537 1902.31539072 C907.18757875 1902.31394088 913.11356408 1902.30519253 919.03957011 1902.29082919 C922.40075224 1902.28288123 925.76179843 1902.27891333 929.12299776 1902.28172374 C946.83392028 1902.29406837 964.35194953 1901.48340922 982 1900 C983.54870053 1899.87313963 983.54870053 1899.87313963 985.12868795 1899.74371643 C1028.25060879 1896.2098837 1072.25736066 1889.3054311 1113.23242188 1874.96728516 C1116.38208116 1873.86646034 1119.54274246 1872.80010244 1122.703125 1871.73046875 C1138.26683693 1866.38985373 1153.20723608 1860.1957149 1168 1853 C1168.9290918 1852.55060059 1169.85818359 1852.10120117 1170.81542969 1851.63818359 C1179.51520293 1847.4140251 1188.17807869 1843.20557921 1196.3203125 1837.9609375 C1198 1837 1198 1837 1200 1837 C1200 1926.43 1200 2015.86 1200 2108 C1207.26 2108 1214.52 2108 1222 2108 C1218.41891418 2110.38739054 1214.80157159 2111.35670228 1210.70703125 2112.50390625 C1209.86571655 2112.7430928 1209.02440186 2112.98227936 1208.15759277 2113.22871399 C1205.37805673 2114.01458831 1202.5957489 2114.78988305 1199.8125 2115.5625 C1198.85572357 2115.82911438 1197.89894714 2116.09572876 1196.91317749 2116.37042236 C1176.76142761 2121.96502557 1156.47756222 2126.76193915 1136 2131 C1135.29738037 2131.1456842 1134.59476074 2131.29136841 1133.87084961 2131.44146729 C1086.94272776 2141.12321295 1039.25514931 2146.32234048 991.5 2149.75 C990.69556458 2149.80916595 989.89112915 2149.86833191 989.06231689 2149.92929077 C660.2334113 2173.7165706 329.68816151 2152 0 2152 C0 1441.84 0 731.68 0 0 Z " fill="#000000" transform="translate(633,770)"/>
<path d="M0 0 C4.26866262 0.00460621 8.53703853 -0.0022157 12.80566406 -0.02050781 C92.00384833 -0.35658933 174.50322906 6.08974802 250.10839844 31.41870117 C253.27391634 32.46759302 256.45066197 33.47872279 259.62792969 34.49145508 C308.33793737 50.16981899 355.58254423 72.3172663 395.81542969 104.31567383 C396.72615234 105.0356958 396.72615234 105.0356958 397.65527344 105.77026367 C406.1752036 112.52351241 414.40815088 119.48183141 422.328125 126.92993164 C423.89003819 128.38518759 425.47108149 129.81700842 427.05761719 131.24536133 C434.42608283 137.90095966 441.27802593 144.84333308 447.81542969 152.31567383 C448.26096191 152.82179199 448.70649414 153.32791016 449.16552734 153.84936523 C510.43282152 223.75889738 537.52744372 317.27748311 554.81542969 433.31567383 C615.53542969 433.31567383 676.25542969 433.31567383 738.81542969 433.31567383 C738.81542969 606.56567383 738.81542969 779.81567383 738.81542969 958.31567383 C733.79537443 954.55063239 729.98218729 951.56078269 725.77246094 947.21801758 C722.63927529 944.17238603 719.22235747 941.49338719 715.81933594 938.75708008 C713.25050184 936.66927603 710.72980442 934.53724122 708.22363281 932.375 C688.44141916 915.3682285 666.36318005 900.39750714 643.73730469 887.42016602 C641.52706286 886.14995082 639.32798574 884.86125952 637.12792969 883.57348633 C580.39990551 850.55375145 519.04199457 827.34761683 456.64794922 807.53735352 C452.8091784 806.31712709 448.98095974 805.06641969 445.15893555 803.79467773 C437.29262459 801.27241682 429.36747316 799.11002058 421.36791992 797.05566406 C420.18410201 796.75040771 419.0002841 796.44515135 417.78059292 796.1306448 C414.12621753 795.18965358 410.47099145 794.25204476 406.81542969 793.31567383 C405.73448658 793.0384914 404.65354347 792.76130898 403.53984451 792.47572708 C367.03566064 783.12731881 330.38332565 774.49721956 293.62974882 766.19477415 C285.58201421 764.37646206 277.53639814 762.54883298 269.49072266 760.72143555 C266.46601697 760.03454725 263.44129522 759.34772969 260.41656494 758.66094971 C259.66374489 758.49001486 258.91092484 758.31908001 258.13529205 758.14296532 C252.79255041 756.92997848 247.44953536 755.71820094 242.10638428 754.50701904 C221.50968042 749.83798354 200.91666132 745.15303741 180.32714844 740.45239258 C179.63428348 740.29421492 178.94141852 740.13603725 178.22755766 739.97306633 C167.96491882 737.63008581 157.70261469 735.28564122 147.44042969 732.94067383 C146.09213779 732.63259065 144.74384576 732.32450807 143.39555359 732.01642609 C131.75600749 729.35678918 120.11648538 726.69704729 108.47720337 724.03625488 C96.00708409 721.1857637 83.53592207 718.3399504 71.06291199 715.50213623 C0.28633292 699.39824997 -70.33228478 682.51905057 -140.37207031 663.44067383 C-141.50139984 663.13320221 -142.63072937 662.82573059 -143.79428101 662.50894165 C-158.31848451 658.54701955 -172.79110344 654.43096576 -187.23300171 650.17932129 C-190.16033661 649.32276476 -193.0912285 648.47972073 -196.02368164 647.64086914 C-211.64695577 643.16001 -227.11718172 638.2577769 -242.55957031 633.19067383 C-243.18996845 632.98409527 -243.82036659 632.77751671 -244.46986771 632.56467819 C-292.7798016 616.72896894 -342.12472297 599.6060047 -382.18457031 567.31567383 C-383.02890625 566.6634082 -383.87324219 566.01114258 -384.74316406 565.33911133 C-391.93870818 559.74385622 -398.57741529 553.58337461 -405.18457031 547.31567383 C-405.93996094 546.60282227 -406.69535156 545.8899707 -407.47363281 545.15551758 C-412.86023726 539.92986745 -417.53392551 534.19668889 -422.18457031 528.31567383 C-422.99023438 527.31536133 -423.79589844 526.31504883 -424.62597656 525.28442383 C-453.36504858 489.20807693 -468.23434823 445.63006301 -474.18457031 400.31567383 C-474.27118927 399.69679794 -474.35780823 399.07792206 -474.447052 398.44029236 C-475.31955031 391.61086979 -475.36358989 384.81443942 -475.38769531 377.93676758 C-475.39339539 376.65246353 -475.39909546 375.36815948 -475.40496826 374.04493713 C-475.41542326 371.32764296 -475.42129876 368.6103778 -475.42480469 365.89306641 C-475.42914874 363.15985465 -475.44289036 360.42696581 -475.46582031 357.69384766 C-475.60827262 340.34646896 -474.99125716 323.45813522 -472.18457031 306.31567383 C-472.01063751 305.24320908 -472.01063751 305.24320908 -471.83319092 304.14907837 C-471.15523583 300.07725771 -470.36049911 296.03934886 -469.49707031 292.00317383 C-469.24143311 290.79935059 -468.9857959 289.59552734 -468.72241211 288.35522461 C-456.31225936 231.70870326 -428.44128336 177.24498966 -388.56347656 134.87036133 C-386.68777027 132.85605604 -384.89217479 130.81462799 -383.10253906 128.72583008 C-378.75557511 123.73986417 -374.10975621 119.05479424 -369.43408203 114.37988281 C-367.94563794 112.88925767 -366.46539755 111.39080366 -364.98535156 109.8918457 C-358.71480743 103.58397303 -352.18907643 97.81469569 -345.18457031 92.31567383 C-344.46462891 91.74179932 -343.7446875 91.1679248 -343.00292969 90.57666016 C-322.65342873 74.43867692 -300.5864121 61.50620653 -277.18457031 50.31567383 C-276.10030762 49.79239502 -276.10030762 49.79239502 -274.99414062 49.25854492 C-220.03004712 22.93488122 -158.02124756 10.62231998 -97.72094727 4.56567383 C-95.30775379 4.32180626 -92.89562074 4.06894109 -90.48339844 3.81567383 C-85.05520531 3.25779509 -79.62214141 2.77250562 -74.18457031 2.31567383 C-72.56518555 2.1784642 -72.56518555 2.1784642 -70.91308594 2.03848267 C-47.28811042 0.11691648 -23.69152496 -0.02763873 0 0 Z " fill="#FEFEFE" transform="translate(3261.1845703125,736.684326171875)"/>
<path d="M0 0 C99.66 -0.04125 199.32 -0.0825 302 -0.125 C333.40929688 -0.14320801 364.81859375 -0.16141602 397.1796875 -0.18017578 C435.68359375 -0.18920898 435.68359375 -0.18920898 453.73779297 -0.19088745 C467.10575581 -0.19286405 480.47369803 -0.20144009 493.84165512 -0.21334685 C507.52912041 -0.22537088 521.21657297 -0.22964654 534.90404332 -0.2268899 C542.30781709 -0.22559625 549.71155577 -0.22720653 557.11532211 -0.23843026 C645.54574588 -0.36722122 733.94330688 3.94228678 837 32 C838.10746582 32.35642578 839.21493164 32.71285156 840.35595703 33.08007812 C853.94169841 37.4923178 867.29293124 42.34054628 880.4375 47.9375 C881.47616211 48.37860107 882.51482422 48.81970215 883.58496094 49.27416992 C891.00122731 52.50747419 898.22532625 56.0780955 905.45336914 59.70922852 C906.46993843 60.21877327 907.48650772 60.72831802 908.53388214 61.25330353 C911.02310239 62.50118154 913.51179202 63.75010514 916 65 C916.2913514 124.5395642 916.56164536 184.07920928 916.71983337 243.61929321 C916.72218034 244.50040834 916.72452731 245.38152347 916.7269454 246.28933906 C916.77782404 265.43803321 916.82491724 284.58673492 916.8681106 303.73544791 C916.88931545 313.1258797 916.91135685 322.51630946 916.93383789 331.90673828 C916.93717225 333.30843418 916.93717225 333.30843418 916.94057396 334.73844718 C917.013026 365.03097052 917.14072413 395.32295503 917.29705275 425.6151519 C917.45740027 456.74261498 917.56205068 487.86977983 917.59655483 518.99764894 C917.60145351 523.39353049 917.60698934 527.78941101 917.61291313 532.18529129 C917.61405932 533.05046926 917.61520551 533.91564723 917.61638644 534.80704272 C917.63648136 548.73812 917.71534121 562.66827554 917.81614458 576.59897682 C917.91621788 590.60193279 917.95445933 604.60397445 917.92952342 618.60727553 C917.9165853 626.92929531 917.9511131 635.24797079 918.05355823 643.5693869 C918.12482218 649.78214848 918.10735196 655.99168267 918.05528121 662.20456822 C918.04808497 664.71895248 918.06977407 667.23361694 918.1230141 669.74744777 C918.48845239 688.06525048 918.48845239 688.06525048 914.33731405 692.96088412 C910.31802367 696.26452779 905.91647248 698.35178289 901.07722002 700.18736942 C898.0954157 701.35388301 895.39599654 702.87426953 892.6015625 704.43359375 C856.65954712 722.71526259 819.18097406 735.01087598 780 744 C778.86256348 744.26151855 777.72512695 744.52303711 776.55322266 744.79248047 C732.37682551 754.73130768 686.60782848 758.17339085 641.43759155 758.12025452 C638.66923471 758.12013467 635.90087907 758.12152885 633.13252258 758.12284851 C627.13173518 758.12491419 621.13095777 758.12329985 615.13017154 758.11921513 C606.09152678 758.11308288 597.05288799 758.11284787 588.01424152 758.11368043 C572.86297757 758.11491924 557.71171798 758.11164271 542.56045532 758.10557556 C522.073912 758.0973865 501.5873761 758.09547153 481.10083008 758.09460449 C431.85888584 758.08935715 382.61694283 758.075396 333.375 758.0625 C168.354375 758.0315625 168.354375 758.0315625 0 758 C0 507.86 0 257.72 0 0 Z " fill="#FEFEFE" transform="translate(918,1915)"/>
<path d="M0 0 C139.0021875 -0.061875 139.0021875 -0.061875 280.8125 -0.125 C324.62737183 -0.15231201 324.62737183 -0.15231201 369.32739258 -0.18017578 C405.12438965 -0.18920898 405.12438965 -0.18920898 421.90727234 -0.19088745 C434.33895519 -0.19286475 446.77061588 -0.20144351 459.20229255 -0.21334685 C471.92855258 -0.22536515 484.65479892 -0.22964781 497.3810644 -0.2268899 C504.2660455 -0.22559547 511.15098322 -0.22744195 518.03595698 -0.23843026 C600.74702593 -0.36385682 688.41137462 1.83323352 768 27 C769.22734863 27.38285156 770.45469727 27.76570313 771.71923828 28.16015625 C790.09487497 33.91514795 807.74337653 40.36529455 825 49 C826.25441895 49.61609131 826.25441895 49.61609131 827.53417969 50.24462891 C857.49428415 65.02232842 887.57690254 86.0402466 909 112 C909.47763074 112.37661355 909.95526148 112.75322709 910.44736588 113.14125317 C913.58332245 115.95338346 914.86505548 118.18974948 915.56344008 122.38307631 C915.7827807 126.82565557 915.8101585 131.23502019 915.77536011 135.68135071 C915.78370791 137.40857061 915.79466358 139.13577955 915.80799973 140.86296815 C915.83693376 145.60532468 915.82841249 150.34698682 915.81366611 155.08938158 C915.80421317 160.20544694 915.82921324 165.32136093 915.84970093 170.43737793 C915.88410944 180.45893537 915.88575017 190.48024219 915.87527512 200.50184337 C915.86719461 208.64759358 915.87007537 216.79326968 915.88077164 224.93901634 C915.88226848 226.09805704 915.88376533 227.25709774 915.88530753 228.45126089 C915.88837047 230.80581586 915.89144716 233.16037081 915.89453746 235.51492574 C915.92199976 257.60069987 915.911104 279.68633236 915.88816704 301.77210327 C915.8683049 321.976172 915.89417681 342.17987434 915.94203542 362.38388655 C915.99080542 383.12896226 916.01003592 403.87386729 915.99672997 424.61899918 C915.9897423 436.26596268 915.99423077 447.91264442 916.02923203 459.55956459 C916.05866137 469.47544663 916.05996704 479.39084859 916.0250902 489.30672113 C916.00805167 494.36539999 916.00381346 499.42322102 916.03439331 504.48185539 C916.06205707 509.11550366 916.05260574 513.74755813 916.01391484 518.38111379 C916.0063842 520.05468718 916.01227056 521.72838776 916.03313814 523.401848 C916.13941531 532.57933257 915.68324982 539.06028302 909.01650155 546.0701682 C908.35105604 546.70701269 907.68561053 547.34385719 907 548 C905.96146348 549.16033858 904.92952327 550.32669149 903.91015625 551.50390625 C902.96511394 552.52731 902.01590603 553.54688337 901.0625 554.5625 C900.55017822 555.11131836 900.03785645 555.66013672 899.51000977 556.22558594 C898.01258557 557.82277611 896.50812036 559.41291235 895 561 C894.21367188 561.82886719 893.42734375 562.65773438 892.6171875 563.51171875 C887.11524637 569.16156152 881.17569745 574.1062032 875 579 C873.93941199 579.86243073 872.87953731 580.7257393 871.8203125 581.58984375 C842.80217773 605.07403051 809.846252 621.13833023 775 634 C773.60406616 634.52484985 773.60406616 634.52484985 772.17993164 635.06030273 C722.10588938 653.68950238 666.7315341 660.57366116 613.75 664.75 C613.00036987 664.80916595 612.25073975 664.86833191 611.47839355 664.92929077 C591.19938788 666.50175254 570.98350308 667.1483028 550.64543152 667.12025452 C548.26127104 667.12069303 545.87711061 667.12157195 543.49295044 667.12284851 C537.66791892 667.12484083 531.84290261 667.12223002 526.01787288 667.11761181 C518.93353151 667.11227274 511.84919338 667.11292165 504.76485047 667.11368043 C491.75740076 667.11491716 478.74995613 667.1116514 465.74250793 667.10557556 C448.15471211 667.09737481 430.56692495 667.09547077 412.97912598 667.09460449 C370.71524962 667.08936089 328.45137471 667.0753997 286.1875 667.0625 C191.745625 667.041875 97.30375 667.02125 0 667 C0 446.89 0 226.78 0 0 Z " fill="#FEFEFE" transform="translate(919,1013)"/>
<path d="M0 0 C4.23516733 2.5411004 7.53121752 5.14739475 11.0625 8.5 C12.22093391 9.58768735 13.37979718 10.67491757 14.5390625 11.76171875 C15.11946289 12.30747559 15.69986328 12.85323242 16.29785156 13.41552734 C17.85633432 14.86626646 19.43242637 16.29215651 21.0234375 17.70703125 C28.61990976 24.49905136 35.57821603 31.76406493 42.44140625 39.29296875 C43.78589493 40.76550397 45.14188321 42.22752446 46.5 43.6875 C52.25640887 49.93731535 57.4794628 56.55209972 62.66210938 63.27685547 C63.87887099 64.84399113 65.11794956 66.39373513 66.359375 67.94140625 C78.53099452 83.27846374 89.36572702 99.957275 99 117 C99.44762695 117.78987305 99.89525391 118.57974609 100.35644531 119.39355469 C113.17696334 142.15232618 124.01756382 165.46398783 133 190 C133.22923157 190.62521545 133.45846313 191.25043091 133.69464111 191.89459229 C147.7926866 230.52924134 157.16288026 271.17362091 162 312 C162.12616699 313.04816895 162.25233398 314.09633789 162.38232422 315.17626953 C165.87095644 344.56443837 167.39216332 373.79901222 167.31805801 403.36829376 C167.31239341 405.66827972 167.30958857 407.96825824 167.30697632 410.26824951 C167.27071666 432.24747263 166.95169514 454.10193518 164.25323486 475.94207764 C163.98721956 478.10386072 163.73304236 480.26684034 163.47998047 482.43017578 C160.8623493 504.52999202 156.98769858 526.31472464 152 548 C151.77600525 548.97589081 151.77600525 548.97589081 151.54748535 549.97149658 C141.06284507 595.35883998 124.43499255 639.42525777 103.12353516 680.81494141 C102.30662728 682.40366924 101.49442402 683.99481884 100.68505859 685.58740234 C92.00135251 702.66585414 82.63346885 719.04979673 72 735 C48.24 735 24.48 735 0 735 C0 492.45 0 249.9 0 0 Z " fill="#000000" transform="translate(2125,1886)"/>
<path d="M0 0 C18.19255993 24.25674658 28.57599473 57.44940554 38 86 C38.23884918 86.71692017 38.47769836 87.43384033 38.7237854 88.17248535 C42.44217266 99.38573991 45.54130546 110.6371125 48.13305664 122.16210938 C48.68946408 124.63372461 49.25885528 127.10208368 49.83007812 129.5703125 C52.2213606 139.99677458 54.24881438 150.44803801 56 161 C56.15299561 161.90250488 56.30599121 162.80500977 56.46362305 163.73486328 C58.23833458 174.38313247 59.50598345 185.07710722 60.625 195.8125 C60.74810547 196.99166992 60.87121094 198.17083984 60.99804688 199.38574219 C62.41296711 213.42941178 63.17382704 227.39999986 63.2734375 241.5078125 C63.27969587 242.2698423 63.28595425 243.0318721 63.29240227 243.81699371 C63.33828301 249.5863032 63.36189373 255.35552976 63.375 261.125 C63.37715389 261.97272224 63.37930779 262.82044449 63.38152695 263.69385529 C63.43671994 290.65505664 62.52488485 317.0933259 58.3449707 343.7800293 C58.00716239 345.95390827 57.68536255 348.12952627 57.36914062 350.30664062 C49.51391091 404.13244916 33.5520189 454.70368011 9.5 503.375 C9.00765869 504.37394287 8.51531738 505.37288574 8.00805664 506.40209961 C7.54133545 507.32901611 7.07461426 508.25593262 6.59375 509.2109375 C5.98563477 510.42209229 5.98563477 510.42209229 5.36523438 511.65771484 C4 514 4 514 0 519 C0 347.73 0 176.46 0 0 Z " fill="#000001" transform="translate(2125,1045)"/>
</svg>
